DBRep_DrawableShape

CASCADE Topology V1, (c) Matra-Datavision
Locations 0
Curve2ds 26
1 8.4618603982356753 40.087828900913408 -0.97992470462082637 -0.19936793441721343 
1 0.32590811322158569 38 -1 -0 
1 7.8231295750712739 39.957877646227807 -0.19936793441719777 -0.97992470462082948 
1 -40.819462772374472 -38 1 0 
1 -8.4530543788247243 -40.042122353772193 1 0 
1 0.3061459707928087 38 -1 0 
1 -7.8407624372391043 -40.042122353772193 0.19936793441719775 0.97992470462082948 
1 -40.88576952741024 -38 1 -2.2579901901111671e-34 
1 -0.32590811322160107 38 0 -1 
8 0 76
1 -40.819462772374472 -38 0 1 
1 -0.32590811322160107 -38 1 0 
8 0 0.65181622644318671
1 7.8231295750712739 39.957877646227807 0.97992470462082637 0.19936793441721343 
1 0.32590811322158569 -38 0 1 
8 0 76
1 -38 0 1 -0 
1 40.819462772374472 -38 0 1 
8 0 76
1 0.3061459707928087 38 -0 -1 
1 40.819462772374472 38 -1 0 
8 0 81.638925544748943
1 -8.4530543788247243 -40.042122353772193 0.19936793441719777 0.97992470462082948 
1 -0.30614597079281136 38 0 -1 
8 0 76
1 -40.88576952741024 -38 -0 1 
1 -0.30614597079281136 -38 1 0 
8 0 0.61229194158562006
1 -7.8407624372391043 -40.042122353772193 -1 -0 
1 40.885769527410247 -38 0 1 
8 0 76
1 38 0 -1 -0 
1 40.885769527410247 38 -1 2.2579901901111671e-34 
8 0 81.771539054820508
1 8.4618603982356753 40.087828900913415 -0.19936793441719775 -0.97992470462082948 
Curves 13
1 21.9149147770604 40.129951254685601 -38 -0.97992470462082626 -0.1993679344172134 0 
1 21.276183953895998 40 -38 -0.19936793441719777 -0.97992470462082948 0 
1 5 -40 -38 1 0 0 
1 5.6122919415856201 -40 -38 0.19936793441719775 0.97992470462082948 0 
1 21.276183953895998 40 -38 0 0 1 
1 21.276183953895998 40 38 0.97992470462082626 0.1993679344172134 0 
1 21.9149147770604 40.129951254685601 38 0 0 -1 
1 5 -40 -38 0 0 1 
1 5 -40 38 0.19936793441719777 0.97992470462082948 0 
1 5.6122919415856201 -40 -38 0 0 1 
1 5.6122919415856201 -40 38 -1 0 0 
1 21.9149147770604 40.129951254685601 -38 0 0 1 
1 21.9149147770604 40.129951254685601 38 -0.19936793441719775 -0.97992470462082948 0 
Polygon3D 0
PolygonOnTriangulations 0
Surfaces 7
1 13.453054378824724 0.042122353772194428 -38 0 0 1 1 0 -0 -0 1 0 
1 21.595549365478202 40.064975627342811 0 -0.1993679344172134 0.97992470462082637 0 0.97992470462082637 0.1993679344172134 0 0 0 -1 
1 13.138091976947999 -1.44237011675576e-15 0 -0.97992470462082948 0.19936793441719772 -0 -0.19936793441719772 -0.97992470462082948 0 0 0 1 
1 5.3061459707928087 -39.999999999999993 0 -1.0228090535292904e-28 -1 -0 -1 1.0228090535292904e-28 0 0 0 -1 
1 13.76360335932301 0.064975627342800032 0 0.97992470462082948 -0.19936793441719777 -8.1352670230327101e-18 0.19936793441719777 0.97992470462082948 0 7.9719491345569035e-18 -1.6219113823143771e-18 1 
1 13.453054378824724 0.042122353772194428 38 0 0 1 1 0 -0 -0 1 0 
1 21.9149147770604 40.129951254685601 0 -1 -0 -0 0 0 -1 0 -1 0 
Triangulations 0

TShapes 37
Ve
1e-07
21.9149147770604 40.1299512546856 -38
0 0

0101101
*
Ve
1e-07
21.276183953896 40 -38
0 0

0101101
*
Ed
 1e-07 1 1 0
1  1 0 0 0.651816226443187
2  1 1 0 0 0.651816226443187
2  2 2 0 0 0.651816226443187
4 C0 1 0 2 0
0

0101000
+37 0 -36 0 *
Ve
1e-07
5 -40 -38
0 0

0101101
*
Ed
 1e-07 1 1 0
1  2 0 0 81.6389255447489
2  3 1 0 0 81.6389255447489
2  4 3 0 0 81.6389255447489
4 C0 1 0 3 0
0

0101000
+36 0 -34 0 *
Ve
1e-07
5.61229194158562 -40 -38
0 0

0101101
*
Ed
 1e-07 1 1 0
1  3 0 0 0.61229194158562
2  5 1 0 0 0.61229194158562
2  6 4 0 0 0.61229194158562
4 C0 1 0 4 0
0

0101000
+34 0 -32 0 *
Ed
 1e-07 1 1 0
1  4 0 0 81.7715390548205
2  7 1 0 0 81.7715390548205
2  8 5 0 0 81.7715390548205
4 C0 1 0 5 0
0

0101000
+32 0 -37 0 *
Wi

0101100
+35 0 +33 0 +31 0 +30 0 *
Fa
0  1e-07 1 0

0111000
+29 0 *
Ve
1e-07
21.276183953896 40 38
0 0

0101101
*
Ed
 1e-07 1 1 0
1  5 0 0 76
2  9 2 0 0 76
2  10 3 0 0 76
4 C0 2 0 3 0
0

0101000
+36 0 -27 0 *
Ve
1e-07
21.9149147770604 40.1299512546856 38
0 0

0101101
*
Ed
 1e-07 1 1 0
1  6 0 0 0.651816226443187
2  11 2 0 0 0.651816226443187
2  12 6 0 0 0.651816226443187
4 C0 2 0 6 0
0

0101000
+27 0 -25 0 *
Ed
 1e-07 1 1 0
1  7 0 0 76
2  13 2 0 0 76
2  14 7 0 0 76
4 C0 2 0 7 0
0

0101000
+25 0 -37 0 *
Wi

0101100
+35 0 +26 0 +24 0 +23 0 *
Fa
0  1e-07 2 0

0111000
+22 0 *
Ve
1e-07
5 -40 38
0 0

0101101
*
Ed
 1e-07 1 1 0
1  8 0 0 76
2  15 3 0 0 76
2  16 4 0 0 76
4 C0 3 0 4 0
0

0101000
+34 0 -20 0 *
Ed
 1e-07 1 1 0
1  9 0 0 81.6389255447489
2  17 3 0 0 81.6389255447489
2  18 6 0 0 81.6389255447489
4 C0 3 0 6 0
0

0101000
+20 0 -27 0 *
Wi

0101100
+33 0 +19 0 +18 0 -26 0 *
Fa
0  1e-07 3 0

0111000
+17 0 *
Ve
1e-07
5.61229194158562 -40 38
0 0

0101101
*
Ed
 1e-07 1 1 0
1  10 0 0 76
2  19 4 0 0 76
2  20 5 0 0 76
4 C0 4 0 5 0
0

0101000
+32 0 -15 0 *
Ed
 1e-07 1 1 0
1  11 0 0 0.61229194158562
2  21 4 0 0 0.61229194158562
2  22 6 0 0 0.61229194158562
4 C0 4 0 6 0
0

0101000
+15 0 -20 0 *
Wi

0101100
+31 0 +14 0 +13 0 -19 0 *
Fa
0  1e-07 4 0

0111000
+12 0 *
Ed
 1e-07 1 1 0
1  12 0 0 76
2  23 5 0 0 76
2  24 7 0 0 76
4 C0 5 0 7 0
0

0101000
+37 0 -25 0 *
Ed
 1e-07 1 1 0
1  13 0 0 81.7715390548205
2  25 5 0 0 81.7715390548205
2  26 6 0 0 81.7715390548205
4 C0 5 0 6 0
0

0101000
+25 0 -15 0 *
Wi

0101100
+30 0 +10 0 +9 0 -14 0 *
Fa
0  1e-07 5 0

0111000
+8 0 *
Wi

0101100
-23 0 -10 0 *
Fa
0  1e-07 7 0

0111000
-6 0 *
Wi

0101100
-24 0 -18 0 -13 0 -9 0 *
Fa
0  1e-07 6 0

0111000
+4 0 *
Sh

0101100
+28 0 -21 0 -16 0 -11 0 -7 0 +5 0 -3 0 *
So

1100000
+2 0 *

-1 0 