DBRep_DrawableShape

CASCADE Topology V1, (c) Matra-Datavision
Locations 0
Curve2ds 26
1 40.113815923178805 35.237689136991662 -0.97992470462082959 -0.19936793441719725 
1 48.831328318626468 41 -1 -0 
1 -55.588234034566796 15.766887013526564 0.71405570166244059 -0.70008889072985558 
1 43.786514981499515 41 -1 0 
1 6.9437873223684115 -45.542018391121836 1 0 
1 41 -8.3676056787208957 0 1 
1 23.678998679810203 -45.542018391121836 0.19936793441719708 0.9799247046208297 
1 -41.217303302589087 -41 1 3.8020661602239119e-34 
1 -48.831328318626468 41 0 -1 
8 0 82
1 43.786514981499515 41 -0 -1 
1 -48.831328318626468 -41 1 0 
8 0 97.662656637252951
1 -55.588234034566796 15.766887013526564 0.97992470462082959 0.19936793441719725 
1 48.831328318626468 -41 0 1 
8 0 82
1 -41 0 1 -0 
1 -43.786514981499522 41 0 -1 
8 0 82
1 41 -8.3676056787208957 -1 -0 
1 -43.786514981499522 -41 1 0 
8 0 87.57302996299903
1 6.9437873223684079 -45.542018391121836 -0.71405570166244059 0.70008889072985558 
1 41 8.3676056787208957 -1 0 
8 0 82
1 -41.217303302589087 -41 1.9259299443872359e-34 1 
1 -41 8.3676056787208957 0 -1 
8 0 16.735211357441791
1 23.678998679810203 -45.542018391121836 -1 -0 
1 41.21730330258908 -41 1.9259299443872359e-34 1 
8 0 82
1 41 0 -1 -0 
1 41.21730330258908 41 -1 -3.8020661602239119e-34 
8 0 82.434606605178175
1 40.113815923178805 35.237689136991683 -0.19936793441719708 -0.9799247046208297 
Curves 13
1 25.1085688928823 40.779707528113498 -41 -0.97992470462082959 -0.19936793441719725 0 
1 -70.593481064863298 21.308905404648399 -41 0.71405570166244059 -0.70008889072985558 0 
1 -8.0614597079280905 -40 -41 1 0 0 
1 8.6737516495137008 -40 -41 0.19936793441719702 0.97992470462082948 0 
1 -70.593481064863298 21.308905404648399 -41 0 0 1 
1 -70.593481064863298 21.308905404648399 41 0.97992470462082959 0.19936793441719725 0 
1 25.1085688928823 40.779707528113498 41 0 0 -1 
1 -8.0614597079280905 -40 -41 0 0 1 
1 -8.0614597079280905 -40 41 -0.71405570166244059 0.70008889072985558 0 
1 8.6737516495137008 -40 -41 0 0 1 
1 8.6737516495137008 -40 41 -1 0 0 
1 25.1085688928823 40.779707528113498 -41 0 0 1 
1 25.1085688928823 40.779707528113498 41 -0.19936793441719702 -0.97992470462082948 0 
Polygon3D 0
PolygonOnTriangulations 0
Surfaces 7
1 -15.005247030296502 5.542018391121835 -41 0 0 1 1 0 -0 -0 1 0 
1 -22.742456085990501 31.044306466380949 0 -0.19936793441719716 0.97992470462082959 0 0.97992470462082959 0.19936793441719716 0 0 0 -1 
1 -39.327470386395696 -9.3455472976757985 0 -0.7000888907298557 -0.71405570166244048 -0 -0.71405570166244048 0.7000888907298557 0 0 0 -1 
1 0.30614597079280542 -40 1.1514315527218176e-15 -0 -1 -0 0 0 -1 1 -0 0 
1 16.891160271198004 0.38985376405674993 0 0.9799247046208297 -0.19936793441719705 -6.7594930900306803e-18 0.19936793441719705 0.9799247046208297 0 6.6237942696348522e-18 -1.3476261750667329e-18 1 
1 -15.005247030296502 5.542018391121835 41 0 0 1 1 0 -0 -0 1 0 
1 25.1085688928823 40.779707528113498 0 -1 -0 -0 0 0 -1 0 -1 0 
Triangulations 0

TShapes 37
Ve
1e-07
25.1085688928823 40.7797075281135 -41
0 0

0101101
*
Ve
1e-07
-70.5934810648633 21.3089054046484 -41
0 0

0101101
*
Ed
 1e-07 1 1 0
1  1 0 0 97.662656637253
2  1 1 0 0 97.662656637253
2  2 2 0 0 97.662656637253
4 C0 1 0 2 0
0

0101000
+37 0 -36 0 *
Ve
1e-07
-8.06145970792809 -40 -41
0 0

0101101
*
Ed
 1e-07 1 1 0
1  2 0 0 87.573029962999
2  3 1 0 0 87.573029962999
2  4 3 0 0 87.573029962999
4 C0 1 0 3 0
0

0101000
+36 0 -34 0 *
Ve
1e-07
8.6737516495137 -40 -41
0 0

0101101
*
Ed
 1e-07 1 1 0
1  3 0 0 16.7352113574418
2  5 1 0 0 16.7352113574418
2  6 4 0 0 16.7352113574418
4 C0 1 0 4 0
0

0101000
+34 0 -32 0 *
Ed
 1e-07 1 1 0
1  4 0 0 82.4346066051782
2  7 1 0 0 82.4346066051782
2  8 5 0 0 82.4346066051782
4 C0 1 0 5 0
0

0101000
+32 0 -37 0 *
Wi

0101100
+35 0 +33 0 +31 0 +30 0 *
Fa
0  1e-07 1 0

0111000
+29 0 *
Ve
1e-07
-70.5934810648633 21.3089054046484 41
0 0

0101101
*
Ed
 1e-07 1 1 0
1  5 0 0 82
2  9 2 0 0 82
2  10 3 0 0 82
4 C0 2 0 3 0
0

0101000
+36 0 -27 0 *
Ve
1e-07
25.1085688928823 40.7797075281135 41
0 0

0101101
*
Ed
 1e-07 1 1 0
1  6 0 0 97.662656637253
2  11 2 0 0 97.662656637253
2  12 6 0 0 97.662656637253
4 C0 2 0 6 0
0

0101000
+27 0 -25 0 *
Ed
 1e-07 1 1 0
1  7 0 0 82
2  13 2 0 0 82
2  14 7 0 0 82
4 C0 2 0 7 0
0

0101000
+25 0 -37 0 *
Wi

0101100
+35 0 +26 0 +24 0 +23 0 *
Fa
0  1e-07 2 0

0111000
+22 0 *
Ve
1e-07
-8.06145970792809 -40 41
0 0

0101101
*
Ed
 1e-07 1 1 0
1  8 0 0 82
2  15 3 0 0 82
2  16 4 0 0 82
4 C0 3 0 4 0
0

0101000
+34 0 -20 0 *
Ed
 1e-07 1 1 0
1  9 0 0 87.573029962999
2  17 3 0 0 87.573029962999
2  18 6 0 0 87.573029962999
4 C0 3 0 6 0
0

0101000
+20 0 -27 0 *
Wi

0101100
+33 0 +19 0 +18 0 -26 0 *
Fa
0  1e-07 3 0

0111000
+17 0 *
Ve
1e-07
8.6737516495137 -40 41
0 0

0101101
*
Ed
 1e-07 1 1 0
1  10 0 0 82
2  19 4 0 0 82
2  20 5 0 0 82
4 C0 4 0 5 0
0

0101000
+32 0 -15 0 *
Ed
 1e-07 1 1 0
1  11 0 0 16.7352113574418
2  21 4 0 0 16.7352113574418
2  22 6 0 0 16.7352113574418
4 C0 4 0 6 0
0

0101000
+15 0 -20 0 *
Wi

0101100
+31 0 +14 0 +13 0 -19 0 *
Fa
0  1e-07 4 0

0111000
+12 0 *
Ed
 1e-07 1 1 0
1  12 0 0 82
2  23 5 0 0 82
2  24 7 0 0 82
4 C0 5 0 7 0
0

0101000
+37 0 -25 0 *
Ed
 1e-07 1 1 0
1  13 0 0 82.4346066051782
2  25 5 0 0 82.4346066051782
2  26 6 0 0 82.4346066051782
4 C0 5 0 6 0
0

0101000
+25 0 -15 0 *
Wi

0101100
+30 0 +10 0 +9 0 -14 0 *
Fa
0  1e-07 5 0

0111000
+8 0 *
Wi

0101100
-23 0 -10 0 *
Fa
0  1e-07 7 0

0111000
-6 0 *
Wi

0101100
-24 0 -18 0 -13 0 -9 0 *
Fa
0  1e-07 6 0

0111000
+4 0 *
Sh

0101100
+28 0 -21 0 -16 0 -11 0 -7 0 +5 0 -3 0 *
So

1100000
+2 0 *

-1 0 