DBRep_DrawableShape

CASCADE Topology V1, (c) Matra-Datavision
Locations 0
Curve2ds 26
1 36.92111851438726 34.038984128549139 -0.97992470462082959 -0.19936793441719738 
1 45.375879639296983 38 -1 -1.9259299443872359e-34 
1 -52.008772390509542 15.945993336449138 0.71133285693031545 -0.7028552956699945 
1 44.039654811796893 38 -1 0 
1 10.64493456049126 -45.961015871450861 1 -1.6822403971566119e-64 
1 38 -5 0 1 
1 20.644934560491258 -45.961015871450861 0.19936793441719777 0.97992470462082948 
1 -40.819462772374472 -38 1 0 
1 -45.375879639296976 38 0 -1 
8 0 76
1 44.039654811796893 38 -0 -1 
1 -45.375879639296976 -38 1 1.9259299443872359e-34 
8 0 90.751759278593937
1 -52.008772390509534 15.945993336449138 0.97992470462082959 0.19936793441719738 
1 45.375879639296983 -38 0 1 
8 0 76
1 -38 0 1 -0 
1 -44.039654811796893 38 0 -1 
8 0 76
1 38 -5 -1 -0 
1 -44.039654811796893 -38 1 0 
8 0 88.079309623593787
1 10.644934560491251 -45.961015871450869 -0.71133285693031545 0.7028552956699945 
1 38 5 -1 0 
8 0 76
1 -40.819462772374472 -38 -0 1 
1 -38 5 0 -1 
8 0 10
1 20.644934560491258 -45.961015871450861 -1 1.6822403971566119e-64 
1 40.819462772374472 -38 0 1 
8 0 76
1 38 0 -1 -0 
1 40.819462772374472 38 -1 0 
8 0 81.638925544748943
1 36.92111851438726 34.038984128549139 -0.19936793441719777 -0.97992470462082948 
Curves 13
1 21.276183953895998 40 -38 -0.97992470462082959 -0.19936793441719738 0 
1 -67.6537069510008 21.9070092079 -38 0.71133285693031545 -0.7028552956699945 0 
1 -5 -40 -38 1 0 0 
1 5 -40 -38 0.19936793441719777 0.97992470462082948 0 
1 -67.6537069510008 21.9070092079 -38 0 0 1 
1 -67.6537069510008 21.9070092079 38 0.97992470462082959 0.19936793441719738 0 
1 21.276183953895998 40 38 0 0 -1 
1 -5 -40 -38 0 0 1 
1 -5 -40 38 -0.71133285693031545 0.7028552956699945 0 
1 5 -40 -38 0 0 1 
1 5 -40 38 -1 0 0 
1 21.276183953895998 40 -38 0 0 1 
1 21.276183953895998 40 38 -0.19936793441719777 -0.97992470462082948 0 
Polygon3D 0
PolygonOnTriangulations 0
Surfaces 7
1 -15.64493456049126 5.9610158714508623 -37.999999999999993 1.8657793817291636e-32 9.0162878506972675e-33 1 1 0 -1.8657793817291636e-32 -1.6822403971566119e-64 1 -9.0162878506972675e-33 
1 -23.188761498552402 30.953504603950002 0 -0.19936793441719738 0.97992470462082959 -4.2712297732654677e-18 0.97992470462082959 0.19936793441719738 9.6296497219361793e-35 8.5154625731717072e-19 -4.185483573934856e-18 -1 
1 -36.3268534755004 -9.0464953960499983 1.3857547058482799e-15 -0.7028552956699945 -0.71133285693031545 1.4852480840519428e-17 -0.71133285693031545 0.7028552956699945 0 -1.0439144812596211e-17 -1.0565057628789458e-17 -1 
1 0 -40 0 -0 -1 -0 0 0 -1 1 -0 0 
1 13.138091976947999 1.44237011675576e-15 0 0.97992470462082948 -0.19936793441719772 0 0.19936793441719772 0.97992470462082948 0 -0 0 1 
1 -15.64493456049126 5.9610158714508623 37.999999999999993 -1.8657793817291636e-32 -9.0162878506972675e-33 1 1 0 1.8657793817291636e-32 -1.6822403971566119e-64 1 9.0162878506972675e-33 
1 21.276183953895998 40 0 -1 -0 -0 0 0 -1 0 -1 0 
Triangulations 0

TShapes 37
Ve
1e-07
21.276183953896 40 -38
0 0

0101101
*
Ve
1e-07
-67.6537069510008 21.9070092079 -38
0 0

0101101
*
Ed
 1e-07 1 1 0
1  1 0 0 90.7517592785939
2  1 1 0 0 90.7517592785939
2  2 2 0 0 90.7517592785939
4 C0 1 0 2 0
0

0101000
+37 0 -36 0 *
Ve
1e-07
-5 -40 -38
0 0

0101101
*
Ed
 1e-07 1 1 0
1  2 0 0 88.0793096235938
2  3 1 0 0 88.0793096235938
2  4 3 0 0 88.0793096235938
4 C0 1 0 3 0
0

0101000
+36 0 -34 0 *
Ve
1e-07
5 -40 -38
0 0

0101101
*
Ed
 1e-07 1 1 0
1  3 0 0 10
2  5 1 0 0 10
2  6 4 0 0 10
4 C0 1 0 4 0
0

0101000
+34 0 -32 0 *
Ed
 1e-07 1 1 0
1  4 0 0 81.6389255447489
2  7 1 0 0 81.6389255447489
2  8 5 0 0 81.6389255447489
4 C0 1 0 5 0
0

0101000
+32 0 -37 0 *
Wi

0101100
+35 0 +33 0 +31 0 +30 0 *
Fa
0  1e-07 1 0

0111000
+29 0 *
Ve
1e-07
-67.6537069510008 21.9070092079 38
0 0

0101101
*
Ed
 1e-07 1 1 0
1  5 0 0 76
2  9 2 0 0 76
2  10 3 0 0 76
4 C0 2 0 3 0
0

0101000
+36 0 -27 0 *
Ve
1e-07
21.276183953896 40 38
0 0

0101101
*
Ed
 1e-07 1 1 0
1  6 0 0 90.7517592785939
2  11 2 0 0 90.7517592785939
2  12 6 0 0 90.7517592785939
4 C0 2 0 6 0
0

0101000
+27 0 -25 0 *
Ed
 1e-07 1 1 0
1  7 0 0 76
2  13 2 0 0 76
2  14 7 0 0 76
4 C0 2 0 7 0
0

0101000
+25 0 -37 0 *
Wi

0101100
+35 0 +26 0 +24 0 +23 0 *
Fa
0  1e-07 2 0

0111000
+22 0 *
Ve
1e-07
-5 -40 38
0 0

0101101
*
Ed
 1e-07 1 1 0
1  8 0 0 76
2  15 3 0 0 76
2  16 4 0 0 76
4 C0 3 0 4 0
0

0101000
+34 0 -20 0 *
Ed
 1e-07 1 1 0
1  9 0 0 88.0793096235938
2  17 3 0 0 88.0793096235938
2  18 6 0 0 88.0793096235938
4 C0 3 0 6 0
0

0101000
+20 0 -27 0 *
Wi

0101100
+33 0 +19 0 +18 0 -26 0 *
Fa
0  1e-07 3 0

0111000
+17 0 *
Ve
1e-07
5 -40 38
0 0

0101101
*
Ed
 1e-07 1 1 0
1  10 0 0 76
2  19 4 0 0 76
2  20 5 0 0 76
4 C0 4 0 5 0
0

0101000
+32 0 -15 0 *
Ed
 1e-07 1 1 0
1  11 0 0 10
2  21 4 0 0 10
2  22 6 0 0 10
4 C0 4 0 6 0
0

0101000
+15 0 -20 0 *
Wi

0101100
+31 0 +14 0 +13 0 -19 0 *
Fa
0  1e-07 4 0

0111000
+12 0 *
Ed
 1e-07 1 1 0
1  12 0 0 76
2  23 5 0 0 76
2  24 7 0 0 76
4 C0 5 0 7 0
0

0101000
+37 0 -25 0 *
Ed
 1e-07 1 1 0
1  13 0 0 81.6389255447489
2  25 5 0 0 81.6389255447489
2  26 6 0 0 81.6389255447489
4 C0 5 0 6 0
0

0101000
+25 0 -15 0 *
Wi

0101100
+30 0 +10 0 +9 0 -14 0 *
Fa
0  1e-07 5 0

0111000
+8 0 *
Wi

0101100
-23 0 -10 0 *
Fa
0  1e-07 7 0

0111000
-6 0 *
Wi

0101100
-24 0 -18 0 -13 0 -9 0 *
Fa
0  1e-07 6 0

0111000
+4 0 *
Sh

0101100
+28 0 -21 0 -16 0 -11 0 -7 0 +5 0 -3 0 *
So

1100000
+2 0 *

-1 0 