<?xml version="1.0" encoding="UTF-8" standalone="no"?>
<!DOCTYPE svg PUBLIC "-//W3C//DTD SVG 1.1//EN" "http://www.w3.org/Graphics/SVG/1.1/DTD/svg11.dtd">
<svg width="100%" height="100%" viewBox="0 0 1366 1366" version="1.1" xmlns="http://www.w3.org/2000/svg" xmlns:xlink="http://www.w3.org/1999/xlink" xml:space="preserve" xmlns:serif="http://www.serif.com/" style="fill-rule:evenodd;clip-rule:evenodd;">
    <g id="Gmsh">
        <g>
            <g id="path7486" transform="matrix(0.637864,0,0,0.637864,252.648,164.265)">
                <path d="M673.627,115.514L98.441,1213.32L1247.46,1213.19L673.627,115.514Z" style="fill:rgb(0,0,5);stroke:black;stroke-width:1px;"/>
            </g>
            <g id="path7488" transform="matrix(0.88396,0,0,0.88396,79.1835,110.349)">
                <path d="M682.324,145.791L682.383,830.309L1096.4,937.87L682.324,145.791Z" style="fill:rgb(211,89,238);stroke:black;stroke-width:3.39px;stroke-linejoin:round;stroke-miterlimit:2;"/>
            </g>
            <g id="path7490" transform="matrix(0.88396,0,0,0.88396,79.1835,110.349)">
                <path d="M682.324,145.791L267.27,937.967L682.383,830.309L682.324,145.791Z" style="fill:rgb(247,247,247);stroke:black;stroke-width:2.83px;stroke-linejoin:round;stroke-miterlimit:2;"/>
            </g>
            <g id="path7492" transform="matrix(0.88396,0,0,0.88396,79.1835,110.349)">
                <path d="M1096.4,937.87L267.27,937.968L682.383,830.309L1096.4,937.87Z" style="fill:rgb(229,194,240);stroke:black;stroke-width:3.39px;stroke-linejoin:round;stroke-miterlimit:2;"/>
            </g>
        </g>
        <g transform="matrix(1,0,0,1,402.69,1204.8)">
            <g id="Gmsh-text" serif:id="Gmsh text">
                <g id="text868">
                    <text x="0px" y="0px" style="font-family:'LucidaGrande-Bold', 'Lucida Grande', sans-serif;font-weight:600;font-size:192px;fill:rgb(77,77,77);">Gmsh</text>
                </g>
            </g>
        </g>
    </g>
</svg>
