<?xml version="1.0" encoding="UTF-8" standalone="no"?>
<!DOCTYPE svg PUBLIC "-//W3C//DTD SVG 1.1//EN" "http://www.w3.org/Graphics/SVG/1.1/DTD/svg11.dtd">
<svg width="100%" height="100%" viewBox="0 0 224 42" version="1.1" xmlns="http://www.w3.org/2000/svg" xmlns:xlink="http://www.w3.org/1999/xlink" xml:space="preserve" xmlns:serif="http://www.serif.com/" style="fill-rule:evenodd;clip-rule:evenodd;stroke-linejoin:round;stroke-miterlimit:2;">
    <g transform="matrix(1,0,0,1,-77.7881,-195.956)">
        <g transform="matrix(0.864914,0,0,1.32299,9.46175,-31.0102)">
            <path d="M336.803,200.156C336.803,199.612 336.127,199.17 335.294,199.17L80.507,199.17C79.674,199.17 78.998,199.612 78.998,200.156L78.998,202.129C78.998,202.674 79.674,203.116 80.507,203.116L335.294,203.116C336.127,203.116 336.803,202.674 336.803,202.129L336.803,200.156Z" style="fill:rgb(194,114,237);"/>
        </g>
        <g>
            <g transform="matrix(1,0,0,1,15.277,-6.30593)">
                <path d="M121.751,231.017C122.548,230.346 122.968,229.586 122.968,228.811C122.968,226.377 118.899,224.4 113.888,224.4C108.877,224.4 104.809,226.377 104.809,228.811C104.809,229.586 105.229,230.346 106.025,231.017L121.751,231.017Z" style="fill:rgb(194,114,237);"/>
            </g>
            <g transform="matrix(1,0,0,1,170.659,-3.43331)">
                <path d="M121.751,231.017C122.548,230.346 122.968,229.586 122.968,228.811C122.968,226.377 118.899,224.4 113.888,224.4C108.877,224.4 104.809,226.377 104.809,228.811C104.809,229.586 105.229,230.346 106.025,231.017L121.751,231.017Z" style="fill:rgb(194,114,237);"/>
            </g>
            <g transform="matrix(1,0,0,1,44.6386,-5.25156)">
                <path d="M121.751,231.017C122.548,230.346 122.968,229.586 122.968,228.811C122.968,226.377 118.899,224.4 113.888,224.4C108.877,224.4 104.809,226.377 104.809,228.811C104.809,229.586 105.229,230.346 106.025,231.017L121.751,231.017Z" style="fill:rgb(194,114,237);"/>
            </g>
            <g transform="matrix(1,0,0,1,77.7268,-4.45223)">
                <path d="M121.751,231.017C122.548,230.346 122.968,229.586 122.968,228.811C122.968,226.377 118.899,224.4 113.888,224.4C108.877,224.4 104.809,226.377 104.809,228.811C104.809,229.586 105.229,230.346 106.025,231.017L121.751,231.017Z" style="fill:rgb(194,114,237);"/>
            </g>
            <g transform="matrix(1,0,0,1,108.802,-3.8444)">
                <path d="M121.751,231.017C122.548,230.346 122.968,229.586 122.968,228.811C122.968,226.377 118.899,224.4 113.888,224.4C108.877,224.4 104.809,226.377 104.809,228.811C104.809,229.586 105.229,230.346 106.025,231.017L121.751,231.017Z" style="fill:rgb(194,114,237);"/>
            </g>
            <g transform="matrix(1,0,0,1,138.929,-3.53102)">
                <path d="M121.751,231.017C122.548,230.346 122.968,229.586 122.968,228.811C122.968,226.377 118.899,224.4 113.888,224.4C108.877,224.4 104.809,226.377 104.809,228.811C104.809,229.586 105.229,230.346 106.025,231.017L121.751,231.017Z" style="fill:rgb(194,114,237);"/>
            </g>
            <g transform="matrix(1,0,0,1,-18.0492,-6.9166)">
                <path d="M121.751,231.017C122.548,230.346 122.968,229.586 122.968,228.811C122.968,226.377 118.899,224.4 113.888,224.4C108.877,224.4 104.809,226.377 104.809,228.811C104.809,229.586 105.229,230.346 106.025,231.017L121.751,231.017Z" style="fill:rgb(194,114,237);"/>
            </g>
        </g>
        <g transform="matrix(1,0,0,-1,0.534727,431.207)">
            <g transform="matrix(1,0,0,1,15.277,-6.30593)">
                <path d="M121.751,231.017C122.548,230.346 122.968,229.586 122.968,228.811C122.968,226.377 118.899,224.4 113.888,224.4C108.877,224.4 104.809,226.377 104.809,228.811C104.809,229.586 105.229,230.346 106.025,231.017L121.751,231.017Z" style="fill:rgb(194,114,237);"/>
            </g>
            <g transform="matrix(1,0,0,1,170.659,-3.43331)">
                <path d="M121.751,231.017C122.548,230.346 122.968,229.586 122.968,228.811C122.968,226.377 118.899,224.4 113.888,224.4C108.877,224.4 104.809,226.377 104.809,228.811C104.809,229.586 105.229,230.346 106.025,231.017L121.751,231.017Z" style="fill:rgb(194,114,237);"/>
            </g>
            <g transform="matrix(1,0,0,1,44.6386,-5.25156)">
                <path d="M121.751,231.017C122.548,230.346 122.968,229.586 122.968,228.811C122.968,226.377 118.899,224.4 113.888,224.4C108.877,224.4 104.809,226.377 104.809,228.811C104.809,229.586 105.229,230.346 106.025,231.017L121.751,231.017Z" style="fill:rgb(194,114,237);"/>
            </g>
            <g transform="matrix(1,0,0,1,77.7268,-4.45223)">
                <path d="M121.751,231.017C122.548,230.346 122.968,229.586 122.968,228.811C122.968,226.377 118.899,224.4 113.888,224.4C108.877,224.4 104.809,226.377 104.809,228.811C104.809,229.586 105.229,230.346 106.025,231.017L121.751,231.017Z" style="fill:rgb(194,114,237);"/>
            </g>
            <g transform="matrix(1,0,0,1,108.802,-3.8444)">
                <path d="M121.751,231.017C122.548,230.346 122.968,229.586 122.968,228.811C122.968,226.377 118.899,224.4 113.888,224.4C108.877,224.4 104.809,226.377 104.809,228.811C104.809,229.586 105.229,230.346 106.025,231.017L121.751,231.017Z" style="fill:rgb(194,114,237);"/>
            </g>
            <g transform="matrix(1,0,0,1,138.929,-3.53102)">
                <path d="M121.751,231.017C122.548,230.346 122.968,229.586 122.968,228.811C122.968,226.377 118.899,224.4 113.888,224.4C108.877,224.4 104.809,226.377 104.809,228.811C104.809,229.586 105.229,230.346 106.025,231.017L121.751,231.017Z" style="fill:rgb(194,114,237);"/>
            </g>
            <g transform="matrix(1,0,0,1,-18.0492,-6.9166)">
                <path d="M121.751,231.017C122.548,230.346 122.968,229.586 122.968,228.811C122.968,226.377 118.899,224.4 113.888,224.4C108.877,224.4 104.809,226.377 104.809,228.811C104.809,229.586 105.229,230.346 106.025,231.017L121.751,231.017Z" style="fill:rgb(194,114,237);"/>
            </g>
        </g>
        <g transform="matrix(0.864914,0,0,1.32299,9.56601,-67.544)">
            <path d="M336.803,200.156C336.803,199.612 336.127,199.17 335.294,199.17L80.507,199.17C79.674,199.17 78.998,199.612 78.998,200.156L78.998,202.129C78.998,202.674 79.674,203.116 80.507,203.116L335.294,203.116C336.127,203.116 336.803,202.674 336.803,202.129L336.803,200.156Z" style="fill:rgb(194,114,237);"/>
        </g>
    </g>
</svg>
