<?xml version="1.0" encoding="UTF-8" standalone="no"?>
<!-- Created with Inkscape (http://www.inkscape.org/) -->

<svg
   width="64"
   height="64"
   viewBox="0 0 16.933333 16.933334"
   version="1.1"
   id="svg162"
   inkscape:version="1.1.2 (0a00cf5339, 2022-02-04)"
   sodipodi:docname="twistedbox_icon.svg"
   xmlns:inkscape="http://www.inkscape.org/namespaces/inkscape"
   xmlns:sodipodi="http://sodipodi.sourceforge.net/DTD/sodipodi-0.dtd"
   xmlns:xlink="http://www.w3.org/1999/xlink"
   xmlns="http://www.w3.org/2000/svg"
   xmlns:svg="http://www.w3.org/2000/svg">
  <sodipodi:namedview
     id="namedview164"
     pagecolor="#ffffff"
     bordercolor="#666666"
     borderopacity="1.0"
     inkscape:pageshadow="2"
     inkscape:pageopacity="0.0"
     inkscape:pagecheckerboard="0"
     inkscape:document-units="mm"
     showgrid="true"
     units="px"
     inkscape:zoom="11.313708"
     inkscape:cx="23.696039"
     inkscape:cy="26.74324"
     inkscape:window-width="2560"
     inkscape:window-height="1375"
     inkscape:window-x="0"
     inkscape:window-y="0"
     inkscape:window-maximized="1"
     inkscape:current-layer="layer1"
     inkscape:rotation="1">
    <inkscape:grid
       type="xygrid"
       id="grid166"
       empspacing="2" />
  </sodipodi:namedview>
  <defs
     id="defs159">
    <linearGradient
       inkscape:collect="always"
       id="linearGradient12567">
      <stop
         style="stop-color:#350a35;stop-opacity:1;"
         offset="0"
         id="stop12563" />
      <stop
         style="stop-color:#350a35;stop-opacity:0;"
         offset="1"
         id="stop12565" />
    </linearGradient>
    <linearGradient
       inkscape:collect="always"
       id="linearGradient12249">
      <stop
         style="stop-color:#d473d4;stop-opacity:1"
         offset="0"
         id="stop12245" />
      <stop
         style="stop-color:#ebbdeb;stop-opacity:0;"
         offset="1"
         id="stop12247" />
    </linearGradient>
    <linearGradient
       inkscape:collect="always"
       id="linearGradient11505">
      <stop
         style="stop-color:#350a35;stop-opacity:1"
         offset="0"
         id="stop11501" />
      <stop
         style="stop-color:#ebbdeb;stop-opacity:1"
         offset="1"
         id="stop11503" />
    </linearGradient>
    <inkscape:path-effect
       effect="bspline"
       id="path-effect33371"
       is_visible="true"
       lpeversion="1"
       weight="33.333333"
       steps="2"
       helper_size="0"
       apply_no_weight="true"
       apply_with_weight="true"
       only_selected="false" />
    <inkscape:path-effect
       effect="powerclip"
       id="path-effect31684"
       is_visible="true"
       lpeversion="1"
       inverse="true"
       flatten="false"
       hide_clip="false"
       message="Use fill-rule evenodd on &lt;b&gt;fill and stroke&lt;/b&gt; dialog if no flatten result after convert clip to paths." />
    <inkscape:path-effect
       effect="bspline"
       id="path-effect31247"
       is_visible="true"
       lpeversion="1"
       weight="33.333333"
       steps="2"
       helper_size="0"
       apply_no_weight="true"
       apply_with_weight="true"
       only_selected="false" />
    <clipPath
       clipPathUnits="userSpaceOnUse"
       id="clipPath31680">
      <path
         id="lpe_path-effect31684"
         style="color:#000000;overflow:visible;fill:none;fill-rule:evenodd;stroke:#000000;stroke-width:0.264583;stroke-linecap:round;stroke-linejoin:round"
         class="powerclip"
         d="M -94.815245,45.529259 H 48.056846 V 103.86257 H -94.815245 Z M -93.13333,25.4 c -10e-7,0 -10e-7,0 -10e-7,1e-6 v 50.799996 c 0,10e-7 0,2e-6 10e-7,2e-6 H 55.033339 c 1e-6,0 1e-6,-1e-6 1e-6,-2e-6 V 25.400001 c 0,-1e-6 0,-1e-6 -1e-6,-1e-6 z" />
    </clipPath>
    <inkscape:path-effect
       effect="bspline"
       id="path-effect31247-7"
       is_visible="true"
       lpeversion="1"
       weight="33.333333"
       steps="2"
       helper_size="0"
       apply_no_weight="true"
       apply_with_weight="true"
       only_selected="false" />
    <linearGradient
       inkscape:collect="always"
       xlink:href="#linearGradient11505"
       id="linearGradient11507"
       x1="23"
       y1="31"
       x2="38"
       y2="56"
       gradientUnits="userSpaceOnUse" />
    <linearGradient
       inkscape:collect="always"
       xlink:href="#linearGradient12249"
       id="linearGradient12251"
       x1="14"
       y1="24"
       x2="18"
       y2="41"
       gradientUnits="userSpaceOnUse" />
    <linearGradient
       inkscape:collect="always"
       xlink:href="#linearGradient12567"
       id="linearGradient12569"
       x1="38"
       y1="56"
       x2="66"
       y2="34"
       gradientUnits="userSpaceOnUse" />
  </defs>
  <g
     inkscape:label="Layer 1"
     inkscape:groupmode="layer"
     id="layer1">
    <path
       style="fill:#ebbdeb;stroke-width:0.52916667;stroke:#000000;stroke-opacity:1;stroke-miterlimit:4;stroke-dasharray:none"
       d="M 6.4523815,15.41401 C 3.8181157,14.866633 1.6503816,14.405537 1.6352022,14.389352 c -0.027911,-0.02975 0.5165383,-1.367086 0.7130314,-1.751425 0.054173,-0.105939 0.1366692,-0.335351 0.1832248,-0.50979 0.04661,-0.174439 0.1410691,-0.465601 0.2099262,-0.647026 0.2461422,-0.648556 0.385905,-1.313264 0.3514627,-1.6716003 -0.011,-0.1136803 -0.00137,-0.1765 0.033686,-0.2307387 C 3.1691563,9.51349 3.1747943,9.3832607 3.1710813,8.5284879 3.1683317,7.9918204 3.1519699,7.438028 3.1335456,7.2978361 3.0785479,6.8763324 3.0265751,6.5838602 3.0027886,6.5603445 2.9904141,6.5481075 2.9802396,6.4958735 2.9802396,6.4441894 c 0,-0.051684 -0.012374,-0.106778 -0.026674,-0.1224524 -0.014712,-0.015674 -0.041111,-0.1536154 -0.058573,-0.3065475 -0.033961,-0.2948798 -0.00687,-0.4123342 -0.06421,-0.4123342 -0.023511,0 -0.054723,-0.010587 -0.056373,-0.1233873 C 2.7730357,5.3387866 2.7269752,5.2890605 2.6252157,5.0914799 2.5566061,4.9582892 2.5005084,4.8403989 2.5005084,4.829508 2.5005084,4.818646 2.4262614,4.6535442 2.3355703,4.4626789 2.2448241,4.2718121 2.170646,4.1026584 2.170646,4.0867806 2.170646,4.0709 2.1317351,3.9738566 2.0841621,3.8711209 1.9335234,3.5459209 1.8186333,3.2695974 1.7666467,3.1074202 1.7388729,3.0210188 1.722511,2.9423226 1.7073867,2.9329084 1.6921248,2.9235588 1.675763,2.8652062 1.675763,2.8124634 1.675763,2.7597204 1.648402,2.6807302 1.63314,2.6274649 1.613478,2.5591169 1.615678,2.5238768 1.64001,2.5077349 1.6594012,2.495223 3.8333225,2.0374964 6.4709157,1.4907107 10.0881,0.74085152 11.275032,0.50503791 11.30106,0.53107932 c 0.01897,0.0189879 0.923893,1.10733318 2.010908,2.41854148 1.274489,1.5373533 1.97494,2.4053173 1.972314,2.443993 -0.011,0.1612423 -0.364442,1.7036457 -0.537988,2.3473511 l -0.196273,0.7280182 0.05747,0.1716107 c 0.03162,0.09439 0.203354,0.8002687 0.381684,1.5686282 l 0.324253,1.397019 -2.000239,2.396417 c -1.100133,1.318031 -2.016353,2.398704 -2.036028,2.401496 -0.01966,0.0028 -2.1911079,-0.442775 -4.8253875,-0.990151 z M 11.847668,15.102118 C 12.699473,13.368357 13.353753,11.792937 13.95551,10.02671 14.471168,8.5131834 14.746652,7.5482461 15.021228,6.2938106 15.125861,5.815816 15.207917,5.4211897 15.203586,5.4168627 15.196712,5.410538 5.9655281,7.314202 5.7147799,7.3735061 5.6634946,7.3856056 5.4624917,7.666201 4.9464346,8.4459281 3.4783124,10.664204 2.5785227,12.246045 2.0196086,13.591294 c -0.1669868,0.401915 -0.2923815,0.740957 -0.2786733,0.753428 0.013749,0.01251 1.9006653,0.410128 4.1932304,0.883685 2.2925514,0.473556 4.3774453,0.906264 4.6330883,0.961574 0.428129,0.09263 0.56,0.119125 0.647391,0.130056 0.01787,0.0022 0.302803,-0.545815 0.633023,-1.217913 z m -0.088,0.614747 c 0.195421,-0.235029 0.397207,-0.488049 0.448437,-0.562268 0.05129,-0.07422 0.117971,-0.156118 0.148274,-0.181996 0.03039,-0.02588 0.119208,-0.127086 0.197401,-0.224907 0.123057,-0.153874 0.206929,-0.255658 0.467521,-0.567487 0.0275,-0.03287 0.08813,-0.107094 0.134882,-0.164933 0.04675,-0.05784 0.141716,-0.165889 0.211164,-0.240109 0.189453,-0.202476 0.738523,-0.861162 0.738523,-0.88597 0,-0.01196 0.04633,-0.07047 0.102983,-0.130111 0.169379,-0.178442 0.668029,-0.773506 0.843128,-1.006144 0.166176,-0.220781 0.19615,-0.312329 0.12237,-0.373591 -0.04111,-0.03415 -0.0572,-0.09876 -0.109308,-0.440471 -0.01526,-0.100316 -0.0484,-0.221762 -0.07342,-0.269889 -0.02502,-0.04812 -0.04579,-0.130894 -0.04579,-0.183917 -9.7e-5,-0.05303 -0.02062,-0.156772 -0.04579,-0.230547 -0.05899,-0.173719 -0.102708,-0.375654 -0.133094,-0.6137156 -0.01375,-0.1050456 -0.0374,-0.1995028 -0.05335,-0.2099139 -0.01595,-0.01045 -0.03781,-0.072913 -0.04854,-0.1388801 -0.011,-0.06597 -0.02722,-0.1671806 -0.03644,-0.2249062 -0.04221,-0.2623115 -0.07878,-0.4198277 -0.09748,-0.4198277 -0.0297,0 -0.153457,0.343935 -0.204096,0.5672174 -0.02392,0.1058018 -0.06229,0.2272532 -0.08497,0.2698888 -0.02282,0.042637 -0.07768,0.1922197 -0.121957,0.3324115 -0.04427,0.1401919 -0.100371,0.3088728 -0.12457,0.3748468 -0.02434,0.06597 -0.07645,0.259867 -0.116045,0.430876 -0.0396,0.171009 -0.104083,0.366678 -0.143297,0.434821 -0.03932,0.06814 -0.07988,0.167964 -0.09006,0.221826 -0.0096,0.05386 -0.05184,0.168566 -0.09226,0.254895 -0.04056,0.08633 -0.08318,0.197446 -0.09473,0.246926 -0.011,0.04949 -0.03259,0.104606 -0.04647,0.122494 -0.04606,0.059 -0.296176,0.576704 -0.296176,0.613118 0,0.01962 -0.03946,0.111783 -0.08758,0.204801 -0.04812,0.09301 -0.117557,0.256843 -0.154241,0.36405 -0.03671,0.107204 -0.11192,0.282101 -0.167303,0.388655 -0.05541,0.106558 -0.100645,0.212491 -0.100645,0.235411 0,0.02292 -0.128145,0.299567 -0.284875,0.61477 -0.156688,0.315202 -0.284888,0.591457 -0.284888,0.613898 0,0.05613 -0.149291,0.306375 -0.182771,0.306375 -0.01499,0 -0.02709,0.02095 -0.02709,0.04657 0,0.02562 -0.03369,0.09622 -0.07493,0.1569 -0.04125,0.06068 -0.07493,0.122108 -0.07493,0.136504 0,0.0144 -0.03712,0.08211 -0.0825,0.150474 -0.04537,0.06836 -0.10092,0.164782 -0.123469,0.214262 -0.02255,0.04948 -0.05307,0.113571 -0.06779,0.14244 -0.05692,0.111687 0.01375,0.03756 0.356481,-0.374845 z M 2.8989805,11.608559 C 3.1878009,11.060882 4.0699639,9.6345479 4.8325069,8.4823476 5.2036313,7.9215787 5.5253678,7.4353468 5.5474769,7.4018326 5.5846004,7.3455425 5.544727,7.2894861 5.0262088,6.6671349 4.7173967,6.296566 4.4260189,5.9528895 4.3787072,5.9034108 4.3314092,5.8539266 4.2577122,5.7662191 4.215034,5.7084907 4.1722733,5.6507707 4.0626079,5.5159644 3.9712293,5.4089362 3.8797956,5.3019107 3.7713401,5.1748234 3.7301056,5.1265244 3.6888573,5.0782227 3.625885,5.0125004 3.5900952,4.9804601 3.5543467,4.948424 3.5172233,4.8908551 3.5075987,4.8525355 3.4979741,4.8142159 3.4638755,4.774535 3.4317019,4.7643467 3.3995282,4.7541721 3.3654297,4.720926 3.3558051,4.6904985 3.3461805,4.6600711 3.249797,4.5426826 3.141534,4.4296404 3.0333261,4.3165926 2.9267406,4.1836261 2.9046177,4.1341474 2.8596571,4.0335978 2.6989951,3.8492648 2.6562756,3.8492648 c -0.015262,0 -0.06311,-0.053403 -0.106283,-0.1186713 C 2.5068194,3.665325 1.8073587,2.8033352 1.7771238,2.7871549 c -0.044273,-0.023718 0.4803773,1.0805658 0.6421668,1.5686662 0.1306195,0.3940516 0.1768588,0.2684547 0.2317053,0.5612377 0.046336,0.2473975 0.2914327,0.7509536 0.3049072,0.756452 0.013749,0.0055 0.024474,0.061006 0.024474,0.1233599 0,0.1604049 0.025299,0.460167 0.062697,0.4832482 0.017324,0.010725 0.046748,0.1590588 0.05651,0.3435788 0.00962,0.1845214 0.051285,0.3234539 0.06531,0.3321009 0.014024,0.00866 0.025436,0.081603 0.025436,0.1621222 0,0.080517 0.011,0.153625 0.025987,0.1624563 0.029836,0.018424 0.069709,0.9666271 0.068472,1.6260893 -5.637e-4,0.2857117 -0.017737,0.5273619 -0.04771,0.670943 -0.025711,0.1234286 -0.046886,0.3053706 -0.047023,0.4043307 -2.2e-4,0.2212019 -0.071772,0.6779659 -0.150625,0.9609379 -0.048535,0.174017 -0.2588604,0.773964 -0.3439006,0.980762 -0.012374,0.02886 -0.014574,0.05248 -0.0055,0.05248 0.00825,0 0.1027082,-0.165306 0.2092937,-0.367348 z M 10.36269,6.3223076 C 12.957439,5.7857666 15.101799,5.3370762 15.127923,5.3252187 15.164772,5.3084581 14.743998,4.7833965 13.238436,2.9677288 12.173103,1.6829675 11.281343,0.62012058 11.256746,0.60584868 11.199686,0.57271257 1.7365217,2.5319862 1.7469438,2.5747826 c 0.0055,0.024543 3.875385,4.7182082 3.8926955,4.7219164 0.00275,6.229e-4 2.128287,-0.4378504 4.7230507,-0.9743914 z"
       id="path10500"
       sodipodi:nodetypes="sssssssscssssssssssssssssssssscsccsssssssssssssssssssssssssssscsssssssssssssssssssssssssssssssssssssssscsssssssssssssssscscssssssssscss" />
    <path
       style="color:#000000;overflow:visible;fill:#ebbdeb;fill-rule:evenodd;stroke:#000000;stroke-width:0.125;stroke-linecap:round;stroke-linejoin:round;stroke-miterlimit:4;stroke-dasharray:none;stroke-opacity:1"
       d="m 21.541696,26.531264 c -0.01853,-0.01792 -0.03477,-0.09752 -0.03609,-0.176895 -0.0016,-0.09697 -1.211395,-1.606434 -3.687133,-4.600527 C 11.009515,13.519268 8.4743127,10.410627 8.5271367,10.360897 8.7082169,10.190418 41.340569,3.4351122 42.039385,3.4234406 c 0.141194,-0.00236 0.232445,0.1014121 3.114877,3.5422271 2.112418,2.5216348 8.370002,10.0888803 9.371105,11.3324013 0.486043,0.60374 0.866537,1.115472 0.845541,1.13718 -0.04555,0.0471 0.03188,0.03067 -9.070256,1.924404 -5.934048,1.234599 -22.775763,4.776934 -24.306756,5.112464 -0.230185,0.05045 -0.433675,0.07706 -0.4522,0.05915 z"
       id="path11423"
       transform="scale(0.26458333)" />
    <path
       style="color:#000000;overflow:visible;fill:url(#linearGradient11507);fill-rule:evenodd;stroke:#000000;stroke-width:0.125;stroke-linecap:round;stroke-linejoin:round;stroke-miterlimit:4;stroke-dasharray:none;stroke-opacity:1;fill-opacity:1"
       d="M 41.735317,60.525611 C 41.651455,60.492353 38.61409,59.858882 26.492604,57.346601 17.770779,55.538928 12.736875,54.48881 8.8505598,53.666311 8.2822959,53.546043 7.9561721,53.448462 7.9553367,53.398445 c -7.227e-4,-0.04327 0.2210204,-0.625598 0.4927624,-1.294054 0.6184306,-1.521273 2.1036619,-4.641429 3.0386629,-6.383588 2.019333,-3.762561 5.151179,-8.870364 8.577308,-13.988938 1.525756,-2.27945 1.970956,-2.89188 2.133359,-2.934706 0.196637,-0.05185 4.489092,-0.943477 13.585085,-2.821879 15.738696,-3.250179 20.280522,-4.175623 20.317466,-4.139893 0.04864,0.04704 -0.578859,2.898781 -1.093274,4.968516 -2.207791,8.882995 -6.447495,20.277878 -10.917548,29.34266 -1.015646,2.059619 -2.220776,4.413137 -2.257331,4.408376 -0.01847,-0.0024 -0.0619,-0.0156 -0.09651,-0.02933 z"
       id="path11462"
       transform="scale(0.26458333)" />
    <path
       style="color:#000000;overflow:visible;fill:#d473d4;fill-rule:evenodd;stroke:#000000;stroke-width:0.125;stroke-linecap:round;stroke-linejoin:round;stroke-miterlimit:4;stroke-dasharray:none;stroke-opacity:1"
       d="m 48.270218,53.073699 c -0.0065,-0.0799 0.485173,-1.27554 0.762444,-1.854127 0.166084,-0.346572 0.401892,-0.899025 0.524019,-1.227673 0.122127,-0.328647 0.392665,-0.980131 0.601195,-1.447741 0.20853,-0.46761 0.453665,-1.034283 0.544744,-1.259273 0.09108,-0.224989 0.356124,-0.776126 0.588988,-1.224747 0.232864,-0.44862 0.470096,-0.958903 0.527183,-1.133962 0.05709,-0.175057 0.227223,-0.615702 0.37808,-0.979209 0.150858,-0.363508 0.292035,-0.745606 0.313727,-0.849108 0.02169,-0.103501 0.173446,-0.494088 0.337233,-0.86797 0.167834,-0.383119 0.413132,-1.123762 0.56208,-1.697123 0.239069,-0.920275 1.150814,-3.834228 1.272158,-4.065844 0.06749,-0.128814 0.07822,-0.08953 0.255868,0.936512 0.08043,0.46452 0.218877,1.081044 0.307669,1.370054 0.08879,0.289009 0.193706,0.753446 0.233144,1.032082 0.03944,0.278635 0.132212,0.656826 0.206167,0.840424 0.07395,0.183598 0.214562,0.78254 0.312461,1.330981 0.0979,0.548442 0.21924,1.091941 0.269646,1.207776 0.08667,0.199181 0.08267,0.22299 -0.07375,0.438793 -0.310046,0.427732 -1.31452,1.65398 -2.214863,2.703873 -0.935393,1.090764 -1.181912,1.389324 -2.160926,2.617103 -0.32373,0.405989 -0.958083,1.161106 -1.409674,1.678037 -1.401816,1.604646 -1.610495,1.84598 -1.876617,2.170285 -0.142023,0.173073 -0.25946,0.299459 -0.260971,0.280857 z"
       id="path11509"
       transform="scale(0.26458333)" />
    <path
       style="color:#000000;overflow:visible;fill:url(#linearGradient12251);fill-rule:evenodd;stroke:#000000;stroke-width:0.125;stroke-linecap:round;stroke-linejoin:round;stroke-miterlimit:4;stroke-dasharray:none;stroke-opacity:1;fill-opacity:1"
       d="m 13.093225,37.692856 c 0.01441,-0.309659 0.07738,-0.868886 0.139946,-1.242727 0.209753,-1.25332 0.233842,-2.1989 0.138854,-5.450362 -0.05096,-1.744383 -0.12067,-3.208816 -0.162037,-3.404019 -0.03993,-0.188422 -0.100388,-0.595282 -0.134352,-0.904132 -0.03396,-0.308851 -0.110185,-0.687134 -0.169379,-0.840629 -0.05919,-0.153494 -0.139359,-0.619753 -0.178144,-1.03613 -0.0733,-0.786877 -0.164238,-1.260309 -0.283093,-1.473746 -0.03823,-0.06866 -0.09776,-0.553988 -0.132279,-1.078508 l -0.06276,-0.953674 -0.329599,-0.671728 c -0.470906,-0.95971 -0.708745,-1.571881 -0.900845,-2.318667 -0.105234,-0.409098 -0.275278,-0.855717 -0.454635,-1.1941 -0.348494,-0.65748 -0.365471,-0.775773 -0.05461,-0.380528 0.128818,0.163786 0.445905,0.528464 0.70464,0.810395 0.258734,0.281932 0.556212,0.646944 0.661061,0.811138 0.10485,0.164195 0.230444,0.313053 0.279097,0.330797 0.04865,0.01774 0.187162,0.1799 0.307796,0.360346 0.120635,0.180447 0.41351,0.535808 0.650834,0.789693 0.237324,0.253885 0.832451,0.947168 1.322504,1.54063 0.490053,0.593461 1.210874,1.450984 1.601824,1.905605 1.796497,2.089079 3.743046,4.481752 3.721648,4.574599 -0.01266,0.05492 -0.70826,1.135433 -1.545785,2.401149 -1.416827,2.14119 -3.561746,5.460757 -4.671341,7.229567 l -0.475532,0.758047 z"
       id="path12176"
       transform="scale(0.26458333)" />
    <path
       style="color:#000000;overflow:visible;fill:url(#linearGradient12569);fill-rule:evenodd;stroke:#000000;stroke-width:0.0625;stroke-linecap:round;stroke-linejoin:round;stroke-miterlimit:4;stroke-dasharray:none;stroke-opacity:1;fill-opacity:1"
       d="m 48.526878,52.603211 c 0.03124,-0.112609 0.326315,-0.804136 0.626154,-1.467418 0.141847,-0.313786 0.366949,-0.844963 0.500225,-1.180394 0.445278,-1.120682 1.089574,-2.582679 1.619555,-3.674992 0.288699,-0.595022 0.569932,-1.204491 0.624961,-1.354376 0.05503,-0.149884 0.221711,-0.578912 0.370404,-0.953394 0.148692,-0.374482 0.285812,-0.742448 0.304711,-0.817703 0.0189,-0.07525 0.132751,-0.377564 0.253005,-0.671801 0.297489,-0.727891 0.42174,-1.095324 0.680683,-2.012897 0.464875,-1.647299 1.172757,-3.876256 1.209373,-3.808034 0.01128,0.02102 0.04746,0.192478 0.0804,0.381017 0.116793,0.668525 0.228938,1.190895 0.374408,1.743991 0.08102,0.308065 0.185961,0.770439 0.233194,1.027499 0.04723,0.257059 0.125634,0.593297 0.174225,0.747195 0.136807,0.433293 0.202833,0.70968 0.351944,1.473243 0.07587,0.388509 0.169176,0.818374 0.207348,0.955255 0.122861,0.44057 0.129497,0.402949 -0.132205,0.749511 -0.334065,0.442391 -1.10869,1.382288 -2.222379,2.69654 -0.531927,0.627721 -1.276482,1.526217 -1.654568,1.996659 -0.378085,0.470442 -0.880464,1.083605 -1.116397,1.362583 -0.471132,0.55709 -2.309763,2.679885 -2.43091,2.806612 l -0.07591,0.0794 z"
       id="path12457"
       transform="scale(0.26458333)" />
  </g>
</svg>
