<?xml version="1.0" encoding="UTF-8" standalone="no"?>
<!-- Created with Inkscape (http://www.inkscape.org/) -->

<svg
   width="64"
   height="64"
   viewBox="0 0 16.933333 16.933334"
   version="1.1"
   id="svg162"
   inkscape:version="1.1.2 (0a00cf5339, 2022-02-04)"
   sodipodi:docname="polyhedron_icon.svg"
   xmlns:inkscape="http://www.inkscape.org/namespaces/inkscape"
   xmlns:sodipodi="http://sodipodi.sourceforge.net/DTD/sodipodi-0.dtd"
   xmlns:xlink="http://www.w3.org/1999/xlink"
   xmlns="http://www.w3.org/2000/svg"
   xmlns:svg="http://www.w3.org/2000/svg">
  <sodipodi:namedview
     id="namedview164"
     pagecolor="#ffffff"
     bordercolor="#666666"
     borderopacity="1.0"
     inkscape:pageshadow="2"
     inkscape:pageopacity="0.0"
     inkscape:pagecheckerboard="0"
     inkscape:document-units="mm"
     showgrid="true"
     units="px"
     inkscape:zoom="14.481547"
     inkscape:cx="37.703155"
     inkscape:cy="28.519053"
     inkscape:window-width="2560"
     inkscape:window-height="1375"
     inkscape:window-x="0"
     inkscape:window-y="0"
     inkscape:window-maximized="1"
     inkscape:current-layer="layer1">
    <inkscape:grid
       type="xygrid"
       id="grid166"
       empspacing="2" />
  </sodipodi:namedview>
  <defs
     id="defs159">
    <linearGradient
       inkscape:collect="always"
       id="linearGradient15483">
      <stop
         style="stop-color:#d4b7d4;stop-opacity:1;"
         offset="0"
         id="stop15479" />
      <stop
         style="stop-color:#d4b7d4;stop-opacity:0;"
         offset="1"
         id="stop15481" />
    </linearGradient>
    <linearGradient
       inkscape:collect="always"
       id="linearGradient2707">
      <stop
         style="stop-color:#d4b7d4;stop-opacity:1"
         offset="0"
         id="stop3632" />
      <stop
         style="stop-color:#d473d4;stop-opacity:1;"
         offset="1"
         id="stop3630" />
    </linearGradient>
    <linearGradient
       inkscape:collect="always"
       id="linearGradient2707-3">
      <stop
         style="stop-color:#d473d4;stop-opacity:1;"
         offset="0"
         id="stop2703" />
      <stop
         style="stop-color:#d473d4;stop-opacity:0;"
         offset="1"
         id="stop2705" />
    </linearGradient>
    <clipPath
       clipPathUnits="userSpaceOnUse"
       id="clipPath553">
      <rect
         style="color:#000000;overflow:visible;fill:none;fill-rule:evenodd;stroke:#000000;stroke-width:0.264999;stroke-linecap:round"
         id="rect555"
         width="169.33333"
         height="207.43333"
         x="-42.333332"
         y="-207.43333"
         ry="4.2333345" />
    </clipPath>
    <linearGradient
       inkscape:collect="always"
       xlink:href="#linearGradient2707-3"
       id="linearGradient2709"
       x1="2.9644677"
       y1="8.4683925"
       x2="13.969581"
       y2="8.4683925"
       gradientUnits="userSpaceOnUse" />
    <linearGradient
       inkscape:collect="always"
       xlink:href="#linearGradient2707"
       id="linearGradient3628"
       gradientUnits="userSpaceOnUse"
       x1="16"
       y1="12"
       x2="29"
       y2="56" />
    <linearGradient
       inkscape:collect="always"
       xlink:href="#linearGradient15483"
       id="linearGradient15485"
       x1="29.937658"
       y1="31.221553"
       x2="34.047146"
       y2="31.221553"
       gradientUnits="userSpaceOnUse" />
  </defs>
  <g
     inkscape:label="Layer 1"
     inkscape:groupmode="layer"
     id="layer1">
    <path
       style="fill:url(#linearGradient2709);stroke-width:0.396875;stroke-miterlimit:2;stroke-dasharray:none;stroke:#000000;stroke-opacity:1;stroke-linecap:round;stroke-linejoin:round;fill-opacity:1"
       d="M 8.0824481,16.321511 7.9178044,16.22883 5.5353867,8.9483271 C 4.2250573,4.9440497 3.1567069,1.6646472 3.1612744,1.660766 3.1658681,1.657016 3.9294599,1.4007223 4.8582025,1.0915254 l 1.6886237,-0.56218113 1.9098887,-8.44e-5 1.9098891,-9.38e-5 1.700267,0.56481563 c 0.935147,0.3106499 1.702485,0.5653405 1.705197,0.565978 0.0027,6.188e-4 -1.037754,3.1869557 -2.312146,7.0806924 -1.274391,3.8937329 -2.3456822,7.1697169 -2.3806453,7.2799599 l -0.063572,0.200444 -0.1686093,0.09841 c -0.1597172,0.09323 -0.1730653,0.09694 -0.2530978,0.07053 -0.077513,-0.02558 -0.1815684,-0.02166 -0.3003243,0.01132 -0.029466,0.0082 -0.1070775,-0.02112 -0.2112262,-0.07974 z m 0.2452772,0.02369 C 8.3573409,16.32647 8.3167284,15.462183 8.0160769,9.7133552 7.8259426,6.0776745 7.6684876,3.1006532 7.6661766,3.0977376 7.6638329,3.0949251 7.371242,3.1891438 7.0159015,3.3073625 6.5191625,3.4726062 6.3718063,3.5303562 6.3783819,3.5572156 c 0.00469,0.019219 0.432329,2.9093432 0.950277,6.4224976 0.517948,3.5131588 0.9469648,6.3874388 0.9533698,6.3872928 0.00638,-1.42e-4 0.026972,-0.01 0.045694,-0.02181 z m 1.28194,-6.4262478 c 0.5123927,-3.4762163 0.9316237,-6.337672 0.9316237,-6.3587939 0,-0.029531 -0.146752,-0.087281 -0.6382565,-0.2508468 L 9.264776,3.0968751 9.2501604,3.2979313 C 9.2421004,3.4085094 9.0895601,6.3079244 8.9111417,9.7410682 8.7327233,13.17421 8.5804283,16.063481 8.572709,16.16167 c -0.012581,0.16002 -0.00967,0.17943 0.028153,0.187255 0.029016,0.006 0.047653,-0.0097 0.059691,-0.05042 0.00963,-0.03253 0.4367287,-2.903331 0.949122,-6.3795488 z m -2.3284955,0.04338 C 6.7684962,6.4843525 6.3411331,3.6097437 6.3314731,3.5743156 6.3162482,3.5184406 6.1097957,3.3921125 4.7793991,2.6244126 3.9354186,2.1374002 3.2411522,1.7426753 3.2365865,1.7472409 c -0.00666,0.00656 2.5550293,7.8543363 4.3480539,13.3199701 l 0.3719165,1.133706 0.1219762,0.07067 c 0.079369,0.04598 0.1242103,0.06084 0.1283728,0.04251 0.00356,-0.01549 -0.4130633,-2.873779 -0.9257361,-6.3517578 z m 1.5702204,6.3085788 0.1224599,-0.07325 2.3641679,-7.2227598 c 1.300292,-3.9725243 2.361112,-7.2264643 2.357379,-7.2309736 -0.0089,-0.010781 -3.041319,1.7386403 -3.075565,1.7742934 -0.01445,0.015 -0.447608,2.8886901 -0.9625801,6.3858792 -0.5149715,3.4971938 -0.941443,6.3768768 -0.9477148,6.3992958 -0.015591,0.05573 5.54e-4,0.05202 0.1418531,-0.03248 z m -0.326505,-0.09562 c 0.0075,-0.08006 0.1602206,-2.970228 0.3393609,-6.4225858 C 9.0433864,6.3003588 9.1965335,3.3892344 9.2045735,3.2835406 l 0.014616,-0.1921499 h -0.748078 -0.748078 v 0.077156 c 0,0.042469 0.1519472,2.9745463 0.3376593,6.5157555 0.1857122,3.5412018 0.3376874,6.4830958 0.337724,6.5375398 7.03e-5,0.08918 0.00563,0.09899 0.056438,0.09899 0.052172,0 0.057394,-0.01086 0.070022,-0.145571 z M 7.0010046,3.266075 7.6638891,3.0448063 H 8.456714 9.2495388 L 9.9117193,3.2658407 10.5739,3.486875 12.054063,2.6327376 C 12.868151,2.1629565 13.569996,1.7574972 13.613714,1.7317159 L 13.693205,1.684841 12.030026,1.1303942 10.366848,0.57593797 H 8.456714 6.5465787 L 4.8870222,1.1291848 3.2274665,1.6824316 4.7823344,2.5827408 c 0.855177,0.495178 1.5550741,0.9012842 1.5553272,0.9024654 2.55e-4,9.375e-4 0.2987568,-0.097425 0.663343,-0.2191218 z"
       id="path557" />
    <path
       style="color:#000000;overflow:visible;fill:#ebbdeb;fill-opacity:1;fill-rule:evenodd;stroke:#ebbdeb;stroke-width:0.10358;stroke-linecap:round;stroke-linejoin:round;stroke-miterlimit:2;stroke-dasharray:none;stroke-opacity:1"
       d="M 23.46633,12.184567 C 20.047355,10.055602 17.667519,8.6101894 16.07365,7.6945649 15.020531,7.0895839 14.158227,6.5789121 14.157418,6.5597386 14.156609,6.5405653 16.556638,5.724872 19.490816,4.747087 l 5.33487,-1.7777909 7.146531,-4.516e-4 7.146532,-4.516e-4 5.282585,1.7693029 c 2.905422,0.9731165 5.30609,1.7907655 5.334817,1.8169977 0.02873,0.026232 -2.174588,1.3331814 -4.896257,2.9043314 L 39.891406,12.315662 37.461402,11.509469 35.031397,10.703277 H 31.97487 28.918341 l -1.61289,0.531994 c -0.981204,0.32364 -1.62057,0.569374 -1.632501,0.627437 -0.01079,0.05249 -0.382286,0.226965 -0.825552,0.387715 l -0.805938,0.292272 z"
       id="path2331"
       transform="scale(0.26458333)" />
    <path
       style="color:#000000;overflow:visible;fill:#d473d4;fill-opacity:1;fill-rule:evenodd;stroke:#ebbdeb;stroke-width:0.10358;stroke-linecap:round;stroke-linejoin:round;stroke-miterlimit:2;stroke-dasharray:none;stroke-opacity:1"
       d="m 34.394043,57.129542 c -0.003,-0.04466 0.227046,-1.644972 0.51121,-3.55625 0.284164,-1.911279 1.18624,-8.011861 2.004614,-13.556848 1.760168,-11.926222 2.682326,-18.108609 3.385907,-22.699995 0.283611,-1.850774 0.507691,-3.395711 0.497957,-3.433191 -0.0097,-0.03748 0.790225,-0.539174 1.777688,-1.114874 3.530479,-2.058298 7.779556,-4.4938962 7.799769,-4.470877 0.01131,0.012885 -0.299634,1.0022592 -0.690996,2.198609 -0.391363,1.19635 -2.503317,7.659748 -4.693234,14.363107 -4.644508,14.216893 -10.521731,32.182956 -10.560535,32.282463 -0.01481,0.03798 -0.02938,0.03251 -0.03238,-0.01214 z"
       id="path2407"
       transform="scale(0.26458333)" />
    <path
       style="color:#000000;overflow:visible;fill:url(#linearGradient3628);fill-opacity:1.0;fill-rule:evenodd;stroke:#ebbdeb;stroke-width:0.10358;stroke-linecap:round;stroke-linejoin:round;stroke-miterlimit:2;stroke-dasharray:none;stroke-opacity:1"
       d="M 26.936111,49.150054 C 21.77167,33.375664 18.613449,23.701871 13.865806,9.1150484 13.748374,8.7542444 13.635779,8.4144262 13.615596,8.3598969 c -0.04426,-0.119582 0.05486,-0.064761 4.027547,2.2274321 3.541876,2.043622 5.180308,3.013482 5.403593,3.198626 0.186194,0.154389 0.0013,-1.003337 2.049957,12.83413 2.448273,16.536433 4.461964,30.303033 4.441511,30.364392 -0.01031,0.03092 -1.18125,-3.494567 -2.602093,-7.834423 z"
       id="path2711"
       transform="scale(0.26458333)" />
    <path
       style="color:#000000;overflow:visible;fill:#d4b7d4;fill-opacity:1;fill-rule:evenodd;stroke:#ebbdeb;stroke-width:0.10358;stroke-linecap:round;stroke-linejoin:round;stroke-miterlimit:2;stroke-dasharray:none;stroke-opacity:1"
       d="m 28.977098,41.007437 c -0.60261,-4.077128 -1.74442,-11.794397 -2.537355,-17.149488 -0.792935,-5.355091 -1.441861,-9.799858 -1.442057,-9.87726 -3.1e-4,-0.122442 0.217247,-0.213325 1.674189,-0.699381 0.920999,-0.307259 1.68094,-0.539133 1.688758,-0.515277 0.0078,0.02386 0.06317,1.472779 0.122995,3.21983 0.05983,1.747051 0.293432,6.687822 0.519114,10.979491 0.858202,16.319887 1.110294,21.256448 1.090478,21.354147 -0.01126,0.05549 -0.513511,-3.234935 -1.116122,-7.312062 z"
       id="path15362"
       transform="scale(0.26458333)" />
    <path
       style="color:#000000;overflow:visible;fill:#d4b7d4;fill-opacity:1;fill-rule:evenodd;stroke:#ebbdeb;stroke-width:0.10358;stroke-linecap:round;stroke-linejoin:round;stroke-miterlimit:2;stroke-dasharray:none;stroke-opacity:1"
       d="m 33.877363,48.130218 c 0.01808,-0.322825 0.373089,-7.131299 0.788911,-15.129942 0.936144,-18.007456 1.051315,-20.186328 1.068191,-20.208776 0.01655,-0.02201 3.199539,1.052645 3.238766,1.093488 0.01546,0.0161 -8.4e-5,0.200179 -0.03455,0.409065 -0.03446,0.208887 -0.777998,5.258416 -1.652302,11.221177 -2.187044,14.915681 -3.377812,22.9755 -3.412579,23.098361 -0.01612,0.05697 -0.01452,-0.160549 0.0036,-0.483373 z"
       id="path15401"
       transform="scale(0.26458333)" />
    <path
       style="color:#000000;overflow:visible;fill:url(#linearGradient15485);fill-opacity:1;fill-rule:evenodd;stroke:#ebbdeb;stroke-width:0.10358;stroke-linecap:round;stroke-linejoin:round;stroke-miterlimit:2;stroke-dasharray:none;stroke-opacity:1"
       d="M 31.948805,49.856553 C 31.901858,49.236789 30.472241,21.841302 30.17768,15.916808 30.102148,14.397633 30.028896,13.00707 30.014898,12.826668 l -0.02545,-0.328003 h 2.002954 2.002954 l -0.04136,0.811377 c -0.03885,0.762176 -0.377718,7.210608 -1.488698,28.329156 -0.371202,7.056156 -0.476976,8.739016 -0.516492,8.217355 z"
       id="path15440"
       transform="scale(0.26458333)" />
    <path
       style="color:#000000;overflow:visible;fill:#d4b7d4;fill-opacity:1;fill-rule:evenodd;stroke:#ebbdeb;stroke-width:0.10358;stroke-linecap:round;stroke-linejoin:round;stroke-miterlimit:2;stroke-dasharray:none;stroke-opacity:1"
       d="M 29.638069,45.123042 C 26.819228,26.121656 25.342668,16.112154 25.127592,14.546818 c -0.07094,-0.516342 -0.06882,-0.619913 0.01378,-0.672117 0.162956,-0.102989 3.09818,-1.057077 3.13593,-1.019326 0.03449,0.03449 0.239269,4.664085 0.242317,5.478302 9.96e-4,0.266033 0.02332,0.379942 0.06238,0.318266 0.0369,-0.05828 0.04742,0.0775 0.02673,0.345267 -0.03969,0.513701 0.003,1.388127 1.01405,20.777547 0.335864,6.440962 0.36216,7.001899 0.336505,7.1782 -0.01355,0.0931 -0.158094,-0.730357 -0.321212,-1.829915 z"
       id="path15487"
       transform="scale(0.26458333)" />
    <path
       style="color:#000000;overflow:visible;fill:#d4b7d4;fill-opacity:1;fill-rule:evenodd;stroke:#ebbdeb;stroke-width:0.10358;stroke-linecap:round;stroke-linejoin:round;stroke-miterlimit:2;stroke-dasharray:none;stroke-opacity:1"
       d="m 31.975583,48.579065 c -0.0084,-0.03798 -0.05375,-0.737145 -0.100681,-1.553702 -0.0636,-1.106665 -0.08411,-5.671763 -0.08057,-17.930867 0.0026,-9.045422 0.02029,-16.460031 0.03928,-16.476911 0.01899,-0.01688 0.500637,-0.04534 1.070328,-0.06324 0.56969,-0.0179 0.901916,-0.02034 0.738279,-0.0054 l -0.297522,0.02713 0.0097,5.744528 0.0097,5.744527 -0.282516,5.213531 C 32.06802,47.982952 32.02192,48.787423 31.975583,48.579065 Z"
       id="path15659"
       transform="scale(0.26458333)" />
    <path
       style="color:#000000;overflow:visible;fill:#d4b7d4;fill-opacity:1;fill-rule:evenodd;stroke:#ebbdeb;stroke-width:0.10358;stroke-linecap:round;stroke-linejoin:round;stroke-miterlimit:2;stroke-dasharray:none;stroke-opacity:1"
       d="m 31.725894,45.834249 c -0.0023,-0.275382 -0.02294,-0.858045 -0.04592,-1.294808 -0.02298,-0.436763 -0.05712,-1.089317 -0.07587,-1.450121 -0.01875,-0.360804 -0.04951,-0.943487 -0.06836,-1.294849 -0.04799,-0.894483 -0.0981,-1.871818 -0.135418,-2.641195 -0.03486,-0.718596 -0.08071,-1.592696 -0.139453,-2.658556 -0.02093,-0.379793 -0.0526,-0.985737 -0.07037,-1.346541 -0.01777,-0.360804 -0.04863,-0.95121 -0.06857,-1.312014 -0.01994,-0.360804 -0.0503,-0.951211 -0.06747,-1.312015 -0.0341,-0.716621 -0.08352,-1.672323 -0.139248,-2.693083 -0.0197,-0.360804 -0.05096,-0.95121 -0.06948,-1.312014 -0.03914,-0.762778 -0.09119,-1.763709 -0.140053,-2.693083 -0.01897,-0.360804 -0.04826,-0.935673 -0.06508,-1.277487 -0.01683,-0.341815 -0.0504,-0.947758 -0.07462,-1.346542 -0.02422,-0.398783 -0.04132,-0.771671 -0.038,-0.82864 0.0033,-0.05697 0.02033,-2.286531 0.03782,-4.954582 l 0.03179,-4.851001 h -0.275604 c -0.151583,0 -0.294809,-0.03107 -0.318282,-0.06905 -0.02809,-0.04544 0.659126,-0.06905 2.009982,-0.06905 1.128963,0 2.030648,0.02201 2.003745,0.04892 -0.0269,0.0269 -0.415697,0.04013 -0.863988,0.02939 -0.448291,-0.01074 -0.920874,2.84e-4 -1.050186,0.02449 l -0.235111,0.04401 0.0056,1.152293 c 0.0047,0.969971 -0.0014,1.043033 -0.03842,0.46176 -0.0242,-0.379794 -0.04406,6.270049 -0.04415,14.777427 -8.6e-5,8.507379 0.01902,15.172758 0.04246,14.811954 0.03625,-0.558037 0.0445,-0.47038 0.05523,0.586954 0.01234,1.215619 -0.03225,1.967965 -0.116644,1.968078 -0.02319,3e-5 -0.04404,-0.225256 -0.04631,-0.500637 z"
       id="path15698"
       transform="scale(0.26458333)" />
    <path
       style="color:#000000;overflow:visible;fill:#d4b7d4;fill-opacity:1;fill-rule:evenodd;stroke:#ebbdeb;stroke-width:0.10358;stroke-linecap:round;stroke-linejoin:round;stroke-miterlimit:2;stroke-dasharray:none;stroke-opacity:1"
       d="m 33.430449,17.082084 -0.0086,-4.428049 0.21819,-0.04364 c 0.120004,-0.024 0.233835,-0.02799 0.252958,-0.0089 0.01912,0.01912 -0.07519,2.031382 -0.209585,4.471687 L 33.439058,21.5101 Z"
       id="path15737"
       transform="scale(0.26458333)" />
  </g>
</svg>
