<?xml version="1.0" encoding="UTF-8" standalone="no"?>
<!-- Created with Inkscape (http://www.inkscape.org/) -->

<svg
   width="64"
   height="64"
   viewBox="0 0 16.933333 16.933334"
   version="1.1"
   id="svg162"
   inkscape:version="1.1.2 (0a00cf5339, 2022-02-04)"
   sodipodi:docname="twistedtrd_icon.svg"
   xmlns:inkscape="http://www.inkscape.org/namespaces/inkscape"
   xmlns:sodipodi="http://sodipodi.sourceforge.net/DTD/sodipodi-0.dtd"
   xmlns:xlink="http://www.w3.org/1999/xlink"
   xmlns="http://www.w3.org/2000/svg"
   xmlns:svg="http://www.w3.org/2000/svg">
  <sodipodi:namedview
     id="namedview164"
     pagecolor="#ffffff"
     bordercolor="#666666"
     borderopacity="1.0"
     inkscape:pageshadow="2"
     inkscape:pageopacity="0.0"
     inkscape:pagecheckerboard="0"
     inkscape:document-units="mm"
     showgrid="true"
     units="px"
     inkscape:zoom="11.313708"
     inkscape:cx="26.399167"
     inkscape:cy="35.096157"
     inkscape:window-width="2560"
     inkscape:window-height="1375"
     inkscape:window-x="0"
     inkscape:window-y="0"
     inkscape:window-maximized="1"
     inkscape:current-layer="layer1"
     inkscape:rotation="1">
    <inkscape:grid
       type="xygrid"
       id="grid166"
       empspacing="2" />
  </sodipodi:namedview>
  <defs
     id="defs159">
    <linearGradient
       inkscape:collect="always"
       id="linearGradient21893">
      <stop
         style="stop-color:#ebbdeb;stop-opacity:1"
         offset="0"
         id="stop21889" />
      <stop
         style="stop-color:#d473d4;stop-opacity:1"
         offset="1"
         id="stop21891" />
    </linearGradient>
    <linearGradient
       inkscape:collect="always"
       id="linearGradient21885">
      <stop
         style="stop-color:#ebbdeb;stop-opacity:1;"
         offset="0"
         id="stop21881" />
      <stop
         style="stop-color:#d473d4;stop-opacity:1"
         offset="1"
         id="stop21883" />
    </linearGradient>
    <inkscape:path-effect
       effect="bspline"
       id="path-effect19607"
       is_visible="true"
       lpeversion="1"
       weight="33.333333"
       steps="2"
       helper_size="0"
       apply_no_weight="true"
       apply_with_weight="true"
       only_selected="false" />
    <linearGradient
       inkscape:collect="always"
       id="linearGradient18822">
      <stop
         style="stop-color:#d473d4;stop-opacity:1;"
         offset="0"
         id="stop18818" />
      <stop
         style="stop-color:#350a35;stop-opacity:1"
         offset="1"
         id="stop18820" />
    </linearGradient>
    <inkscape:path-effect
       effect="bspline"
       id="path-effect33371"
       is_visible="true"
       lpeversion="1"
       weight="33.333333"
       steps="2"
       helper_size="0"
       apply_no_weight="true"
       apply_with_weight="true"
       only_selected="false" />
    <inkscape:path-effect
       effect="powerclip"
       id="path-effect31684"
       is_visible="true"
       lpeversion="1"
       inverse="true"
       flatten="false"
       hide_clip="false"
       message="Use fill-rule evenodd on &lt;b&gt;fill and stroke&lt;/b&gt; dialog if no flatten result after convert clip to paths." />
    <inkscape:path-effect
       effect="bspline"
       id="path-effect31247"
       is_visible="true"
       lpeversion="1"
       weight="33.333333"
       steps="2"
       helper_size="0"
       apply_no_weight="true"
       apply_with_weight="true"
       only_selected="false" />
    <clipPath
       clipPathUnits="userSpaceOnUse"
       id="clipPath31680">
      <path
         id="lpe_path-effect31684"
         style="color:#000000;overflow:visible;fill:none;fill-rule:evenodd;stroke:#000000;stroke-width:0.264583;stroke-linecap:round;stroke-linejoin:round"
         class="powerclip"
         d="M -94.815245,45.529259 H 48.056846 V 103.86257 H -94.815245 Z M -93.13333,25.4 c -10e-7,0 -10e-7,0 -10e-7,1e-6 v 50.799996 c 0,10e-7 0,2e-6 10e-7,2e-6 H 55.033339 c 1e-6,0 1e-6,-1e-6 1e-6,-2e-6 V 25.400001 c 0,-1e-6 0,-1e-6 -1e-6,-1e-6 z" />
    </clipPath>
    <inkscape:path-effect
       effect="bspline"
       id="path-effect31247-7"
       is_visible="true"
       lpeversion="1"
       weight="33.333333"
       steps="2"
       helper_size="0"
       apply_no_weight="true"
       apply_with_weight="true"
       only_selected="false" />
    <linearGradient
       inkscape:collect="always"
       xlink:href="#linearGradient21885"
       id="linearGradient17527"
       x1="19"
       y1="17"
       x2="-7"
       y2="61"
       gradientUnits="userSpaceOnUse" />
    <linearGradient
       inkscape:collect="always"
       xlink:href="#linearGradient18822"
       id="linearGradient18824"
       x1="47"
       y1="12"
       x2="60"
       y2="54"
       gradientUnits="userSpaceOnUse" />
    <linearGradient
       inkscape:collect="always"
       xlink:href="#linearGradient21893"
       id="linearGradient21887"
       x1="25"
       y1="-5"
       x2="52"
       y2="70"
       gradientUnits="userSpaceOnUse" />
  </defs>
  <g
     inkscape:label="Layer 1"
     inkscape:groupmode="layer"
     id="layer1">
    <path
       style="fill:#f4bdf4;fill-rule:evenodd;stroke:#000000;stroke-width:0.264583px;stroke-linecap:butt;stroke-linejoin:miter;stroke-opacity:1;fill-opacity:0"
       d="M 0.52916666,12.7 3.175,3.7041666 5.5562499,2.1166666 10.583333,0.79374999 16.404166,6.8791666 13.758333,16.139583 0.52916666,12.7"
       id="path19642" />
    <path
       style="color:#000000;overflow:visible;fill:#ebbdeb;fill-rule:evenodd;stroke:#000000;stroke-width:0.176777;stroke-linecap:round;stroke-linejoin:round;stroke-miterlimit:4;stroke-dasharray:none;stroke-opacity:1"
       d="m 25.105713,17.636851 c -0.02276,-0.03626 -0.281336,-0.937093 -0.574616,-2.001843 -0.293279,-1.06475 -0.873099,-3.137579 -1.288488,-4.606287 -0.41539,-1.4687083 -0.722,-2.7029489 -0.681355,-2.7427571 0.12197,-0.1194592 16.144659,-4.0950323 16.218054,-4.0240476 0.105159,0.1017031 2.682699,9.2662197 2.623392,9.3275417 -0.0355,0.0367 -2.235169,0.595989 -10.236226,2.602652 -3.098724,0.777159 -5.720744,1.434989 -5.826712,1.461846 -0.105967,0.02686 -0.211289,0.01916 -0.234049,-0.01711 z"
       id="path16233"
       transform="scale(0.26458333)" />
    <path
       style="color:#000000;overflow:visible;fill:url(#linearGradient21887);fill-opacity:1;fill-rule:evenodd;stroke:#000000;stroke-width:0.176777;stroke-linecap:round;stroke-linejoin:round;stroke-miterlimit:4;stroke-dasharray:none;stroke-opacity:1"
       d="M 50.324841,59.709902 C 50.202603,59.668777 41.513645,57.468855 31.016044,54.821189 5.324988,48.341483 4.601668,48.156805 4.6261259,48.083307 c 0.011722,-0.03522 0.6680797,-0.639331 1.4585723,-1.342456 2.285211,-2.032643 2.7934349,-2.532097 4.4225798,-4.346267 3.0785,-3.428132 3.930459,-4.455995 5.428284,-6.549061 3.919092,-5.476557 5.79867,-8.60664 8.443712,-14.061411 l 0.754947,-1.5569 3.653194,-0.924077 c 7.548914,-1.909499 13.079387,-3.291383 13.2793,-3.318061 0.19119,-0.02551 0.251428,0.08481 0.800101,1.46531 2.080069,5.233619 3.258167,9.161935 5.091177,16.976299 0.84836,3.616673 0.878521,3.782214 1.365837,7.496685 0.885639,6.750597 0.910303,6.999841 1.060574,10.717529 0.188701,4.668442 0.260763,7.157635 0.206993,7.150038 -0.02437,-0.0034 -0.144318,-0.03991 -0.266556,-0.08103 z"
       id="path16328"
       transform="scale(0.26458333)" />
    <path
       style="color:#000000;overflow:visible;fill:url(#linearGradient17527);fill-opacity:1;fill-rule:evenodd;stroke:#000000;stroke-width:0.176777;stroke-linecap:round;stroke-linejoin:round;stroke-miterlimit:4;stroke-dasharray:none;stroke-opacity:1"
       d="M 4.2883105,45.04198 C 4.2877674,45.009462 6.126692,38.584064 8.3748097,30.76332 10.622927,22.942576 12.604628,16.027628 12.778589,15.396769 l 0.316293,-1.147015 0.702102,-0.467587 c 0.386157,-0.257173 1.508991,-0.982991 2.495187,-1.61293 0.986197,-0.629938 2.284379,-1.494467 2.884849,-1.921175 0.60047,-0.4267077 1.102213,-0.7457848 1.114985,-0.70906 0.01277,0.036725 0.634344,2.204293 1.381274,4.816818 l 1.358052,4.750047 -1.076224,2.18155 c -1.328195,2.692304 -1.796267,3.581417 -2.842703,5.399777 -1.779858,3.092803 -5.389878,8.375515 -7.210669,10.551711 -2.2505176,2.689802 -4.8163308,5.433248 -6.4947755,6.944413 -0.9805343,0.88281 -1.1165025,0.987179 -1.118649,0.858662 z"
       id="path16367"
       transform="scale(0.26458333)" />
    <path
       style="color:#000000;overflow:visible;fill:url(#linearGradient18824);fill-opacity:1;fill-rule:evenodd;stroke:#000000;stroke-width:0.176777;stroke-linecap:round;stroke-linejoin:round;stroke-miterlimit:4;stroke-dasharray:none;stroke-opacity:1"
       d="m 52.801581,51.2091 c -0.08439,-1.892666 -0.198386,-2.953251 -0.846565,-7.876506 L 51.205977,37.64326 50.436275,34.385291 c -2.070557,-8.76418 -2.720793,-10.96439 -5.079307,-17.186877 -0.556337,-1.467787 -1.279389,-3.544177 -1.606784,-4.614199 -0.77289,-2.526036 -1.764558,-6.0404773 -1.718016,-6.0886002 0.02003,-0.020708 1.204977,1.0532019 2.63322,2.3864668 4.43785,4.1427334 8.326624,8.2306084 11.927417,12.5380854 1.493007,1.786023 3.307317,4.03655 3.713053,4.605791 0.321822,0.451507 0.32425,0.461214 0.20836,0.833074 -0.06449,0.206934 -0.904594,3.134235 -1.866897,6.505113 -4.320771,15.135356 -5.709772,19.987095 -5.728309,20.008811 -0.01095,0.01282 -0.06379,-0.96091 -0.117431,-2.163856 z"
       id="path16406"
       transform="scale(0.26458333)" />
    <path
       style="fill:#ebbdeb;fill-rule:evenodd;stroke:#000000;stroke-width:0.264583px;stroke-linecap:butt;stroke-linejoin:miter;stroke-opacity:1"
       d="M 0.52916666,12.7 C 1.4110606,9.7015607 2.293005,6.7029495 3.175,3.7041666"
       id="path19605"
       inkscape:path-effect="#path-effect19607"
       inkscape:original-d="M 0.52916666,12.7 C 1.4113757,9.7016534 2.2933201,6.7030422 3.175,3.7041666" />
    <path
       style="fill:#ebbdeb;stroke:#000000;stroke-width:0.529167;stroke-linejoin:round;stroke-miterlimit:4;stroke-dasharray:none;stroke-opacity:1"
       d="m 7.1138545,14.593628 c -3.60541,-0.909466 -6.56830997,-1.666138 -6.58420997,-1.681494 -0.018,-0.01736 0.47209997,-1.785896 1.29580997,-4.6761277 1.16975,-4.104432 1.33439,-4.657561 1.40736,-4.728147 0.0454,-0.04397 0.28941,-0.207722 0.54213,-0.363903 0.56076,-0.346557 1.00388,-0.644013 1.40908,-0.945892 0.16848,-0.125516 0.34767,-0.245142 0.39822,-0.265835 0.0505,-0.02069 1.17686,-0.310242 2.50294,-0.643443 l 2.4110505,-0.60581997 0.37648,0.33320697 c 1.88188,1.665561 3.40884,3.245513 4.78752,4.953692 0.40435,0.50098 0.7391,0.928637 0.74391,0.95035 0.009,0.03859 -2.56959,9.1280847 -2.6277,9.2642517 -0.0162,0.03791 -0.0469,0.06753 -0.0684,0.06583 -0.0214,-0.0017 -2.98882,-0.747202 -6.5942305,-1.656668 z M 13.672425,15.7403 c -0.0104,-0.231656 -0.0336,-0.924326 -0.0516,-1.539268 -0.0325,-1.110103 -0.0341,-1.128886 -0.23073,-2.634369 l -0.19804,-1.516294 -0.33728,-1.4397127 c -0.38601,-1.647777 -0.70087,-2.684513 -1.2039,-3.96406 -0.16167,-0.411223 -0.29808,-0.751818 -0.30313,-0.756877 -0.005,-0.0051 -1.1081,0.269367 -2.4511905,0.609834 l -2.44199,0.619032 -0.34705,0.719856 c -0.53229,1.104105 -0.99339,1.883717 -1.78374,3.015894 -0.61585,0.882213 -0.76512,1.07325 -1.38032,1.7665187 -0.82149,0.92574 -0.82823,0.9325 -1.65895,1.664462 -0.35888997,0.316217 -0.64717997,0.580281 -0.64065997,0.586808 0.0132,0.01322 2.08993997,0.539521 7.89440997,2.000682 2.1480905,0.540737 4.1675105,1.051037 4.4876205,1.133999 0.32011,0.08296 0.60079,0.151707 0.62375,0.152765 0.0342,0.0016 0.0383,-0.07445 0.0228,-0.41927 z m 1.35857,-4.204269 c 0.65995,-2.3165597 1.21783,-4.2670657 1.23974,-4.3344567 0.0948,-0.291608 0.1456,-0.200057 -0.67352,-1.213959 -0.90939,-1.125646 -1.90228,-2.215562 -2.89986,-3.183221 -0.95967,-0.930887 -2.07039,-1.94430497 -2.09931,-1.91539197 -0.006,0.0063 0.17534,0.66730897 0.40359,1.46894797 0.35289,1.239334 0.46305,1.580285 0.73591,2.277557 0.52379,1.338488 0.81858,2.307599 1.20917,3.975149 l 0.33722,1.4397127 0.19858,1.516294 0.19858,1.516294 0.0341,1.271236 c 0.0354,1.318034 0.048,1.517537 0.0912,1.438817 0.0136,-0.02478 0.56467,-1.940419 1.22462,-4.256979 z M 2.8336945,10.642193 c 0.63594,-0.7192187 0.78711,-0.9125467 1.40043,-1.7909927 0.79186,-1.134169 1.25055,-1.910871 1.79298,-3.036035 l 0.35826,-0.743133 -0.40982,-1.431753 c -0.22539,-0.787465 -0.41988,-1.469267 -0.43219,-1.515117 l -0.0224,-0.08336 -0.291,0.216104 c -0.43084,0.319943 -0.77773,0.553374 -1.40597,0.946118 -0.30997,0.193776 -0.57471,0.372998 -0.5883,0.39827 -0.0136,0.02527 -0.0736,0.225146 -0.13337,0.444167 -0.0598,0.21902 -0.11519,0.418895 -0.12318,0.444167 -0.0115,0.03654 -0.88985,3.090045 -2.25561997,7.8418427 -0.0654,0.227444 -0.11889,0.424096 -0.11894,0.437004 -6e-5,0.01291 0.34108,-0.279043 0.75805997,-0.648781 0.66494,-0.589605 0.84579,-0.771365 1.47104,-1.478498 z m 6.03841,-6.2294327 c 1.3074005,-0.329237 2.3924705,-0.603784 2.4112705,-0.610105 0.0219,-0.0074 -0.11826,-0.547372 -0.39063,-1.504874 -0.23365,-0.821359 -0.43164,-1.50019997 -0.43997,-1.50853397 -0.0118,-0.01185 -4.8185305,1.18152597 -4.8470005,1.20338197 -0.004,0.003 0.18564,0.679987 0.4212,1.504424 0.23555,0.824436 0.42828,1.502427 0.42828,1.506647 0,0.0168 0.12089,-0.01276 2.41685,-0.59094 z"
       id="path15884" />
    <path
       style="color:#000000;overflow:visible;fill:#f4bdf4;fill-opacity:0;fill-rule:evenodd;stroke:none;stroke-width:0.176777;stroke-linecap:round;stroke-linejoin:round;stroke-miterlimit:4;stroke-dasharray:none;stroke-opacity:1"
       d="M 27.156687,53.987274 C 13.800989,50.513009 2.8367169,47.636772 2.7916385,47.595637 2.743005,47.551257 4.6951637,40.773459 7.5925254,30.927197 L 12.475373,14.333549 16.860772,11.414228 21.246171,8.4949063 30.25731,6.1259426 c 4.956125,-1.30293 9.135219,-2.4047177 9.286875,-2.4484172 L 39.819923,3.5980719 50.55945,14.824957 c 5.90674,6.174787 10.752599,11.277406 10.768574,11.339154 0.01598,0.06175 -2.152947,7.748913 -4.819828,17.08259 -2.666881,9.333678 -4.848524,16.991341 -4.848095,17.017029 4.29e-4,0.02569 -0.04897,0.04528 -0.109773,0.04355 -0.06081,-0.0017 -11.037943,-2.845739 -24.393641,-6.320004 z"
       id="path20992"
       transform="scale(0.26458333)" />
    <path
       style="color:#000000;overflow:visible;fill:#d473d4;fill-opacity:0;fill-rule:evenodd;stroke:none;stroke-width:0.176777;stroke-linecap:round;stroke-linejoin:round;stroke-miterlimit:4;stroke-dasharray:none;stroke-opacity:1"
       d="M 27.156687,53.987274 C 13.800989,50.513009 2.8367169,47.636772 2.7916385,47.595637 2.743005,47.551257 4.6951637,40.773459 7.5925254,30.927197 L 12.475373,14.333549 16.860772,11.414228 21.246171,8.4949063 30.25731,6.1259426 c 4.956125,-1.30293 9.135219,-2.4047177 9.286875,-2.4484172 L 39.819923,3.5980719 50.55945,14.824957 c 5.90674,6.174787 10.752599,11.277406 10.768574,11.339154 0.01598,0.06175 -2.152947,7.748913 -4.819828,17.08259 -2.666881,9.333678 -4.848524,16.991341 -4.848095,17.017029 4.29e-4,0.02569 -0.04897,0.04528 -0.109773,0.04355 -0.06081,-0.0017 -11.037943,-2.845739 -24.393641,-6.320004 z"
       id="path21296"
       transform="scale(0.26458333)" />
    <path
       style="color:#000000;overflow:visible;fill:#ebbdeb;fill-opacity:0;fill-rule:evenodd;stroke:none;stroke-width:0.176777;stroke-linecap:round;stroke-linejoin:round;stroke-miterlimit:4;stroke-dasharray:none;stroke-opacity:1"
       d="M 27.156687,53.987274 C 13.800989,50.513009 2.8367169,47.636772 2.7916385,47.595637 2.743005,47.551257 4.6951637,40.773459 7.5925254,30.927197 L 12.475373,14.333549 16.860772,11.414228 21.246171,8.4949063 30.25731,6.1259426 c 4.956125,-1.30293 9.135219,-2.4047177 9.286875,-2.4484172 L 39.819923,3.5980719 50.55945,14.824957 c 5.90674,6.174787 10.752599,11.277406 10.768574,11.339154 0.01598,0.06175 -2.152947,7.748913 -4.819828,17.08259 -2.666881,9.333678 -4.848524,16.991341 -4.848095,17.017029 4.29e-4,0.02569 -0.04897,0.04528 -0.109773,0.04355 -0.06081,-0.0017 -11.037943,-2.845739 -24.393641,-6.320004 z"
       id="path21372"
       transform="scale(0.26458333)" />
    <path
       style="color:#000000;overflow:visible;fill:#ebbdeb;fill-opacity:0;fill-rule:evenodd;stroke:none;stroke-width:0.176777;stroke-linecap:round;stroke-linejoin:round;stroke-miterlimit:4;stroke-dasharray:none;stroke-opacity:1"
       d="M 27.156687,53.987274 C 13.800989,50.513009 2.8367169,47.636772 2.7916385,47.595637 2.743005,47.551257 4.6951637,40.773459 7.5925254,30.927197 L 12.475373,14.333549 16.860772,11.414228 21.246171,8.4949063 30.25731,6.1259426 c 4.956125,-1.30293 9.135219,-2.4047177 9.286875,-2.4484172 L 39.819923,3.5980719 50.55945,14.824957 c 5.90674,6.174787 10.752599,11.277406 10.768574,11.339154 0.01598,0.06175 -2.152947,7.748913 -4.819828,17.08259 -2.666881,9.333678 -4.848524,16.991341 -4.848095,17.017029 4.29e-4,0.02569 -0.04897,0.04528 -0.109773,0.04355 -0.06081,-0.0017 -11.037943,-2.845739 -24.393641,-6.320004 z"
       id="path21448"
       transform="scale(0.26458333)" />
    <path
       style="color:#000000;overflow:visible;fill-opacity:0;fill-rule:evenodd;stroke:none;stroke-width:0.176777;stroke-linecap:round;stroke-linejoin:round;stroke-miterlimit:4;stroke-dasharray:none;stroke-opacity:1;fill:#ebbdeb"
       d="M 27.156687,53.987274 C 13.800989,50.513009 2.8367169,47.636772 2.7916385,47.595637 2.743005,47.551257 4.6951637,40.773459 7.5925254,30.927197 L 12.475373,14.333549 16.860772,11.414228 21.246171,8.4949063 30.25731,6.1259426 c 4.956125,-1.30293 9.135219,-2.4047177 9.286875,-2.4484172 L 39.819923,3.5980719 50.55945,14.824957 c 5.90674,6.174787 10.752599,11.277406 10.768574,11.339154 0.01598,0.06175 -2.152947,7.748913 -4.819828,17.08259 -2.666881,9.333678 -4.848524,16.991341 -4.848095,17.017029 4.29e-4,0.02569 -0.04897,0.04528 -0.109773,0.04355 -0.06081,-0.0017 -11.037943,-2.845739 -24.393641,-6.320004 z"
       id="path21487"
       transform="scale(0.26458333)" />
    <path
       style="color:#000000;overflow:visible;fill:#ebbdeb;fill-opacity:0;fill-rule:evenodd;stroke:none;stroke-width:0.176777;stroke-linecap:round;stroke-linejoin:round;stroke-miterlimit:4;stroke-dasharray:none;stroke-opacity:1"
       d="M 27.156687,53.987274 C 13.800989,50.513009 2.8367169,47.636772 2.7916385,47.595637 2.743005,47.551257 4.6951637,40.773459 7.5925254,30.927197 L 12.475373,14.333549 16.860772,11.414228 21.246171,8.4949063 30.25731,6.1259426 c 4.956125,-1.30293 9.135219,-2.4047177 9.286875,-2.4484172 L 39.819923,3.5980719 50.55945,14.824957 c 5.90674,6.174787 10.752599,11.277406 10.768574,11.339154 0.01598,0.06175 -2.152947,7.748913 -4.819828,17.08259 -2.666881,9.333678 -4.848524,16.991341 -4.848095,17.017029 4.29e-4,0.02569 -0.04897,0.04528 -0.109773,0.04355 -0.06081,-0.0017 -11.037943,-2.845739 -24.393641,-6.320004 z"
       id="path21697"
       transform="scale(0.26458333)" />
    <path
       style="color:#000000;overflow:visible;fill:#ebbdeb;fill-opacity:0;fill-rule:evenodd;stroke:none;stroke-width:0.176777;stroke-linecap:round;stroke-linejoin:round;stroke-miterlimit:4;stroke-dasharray:none;stroke-opacity:1"
       d="M 27.156687,53.987274 C 13.800989,50.513009 2.8367169,47.636772 2.7916385,47.595637 2.743005,47.551257 4.6951637,40.773459 7.5925254,30.927197 L 12.475373,14.333549 16.860772,11.414228 21.246171,8.4949063 30.25731,6.1259426 c 4.956125,-1.30293 9.135219,-2.4047177 9.286875,-2.4484172 L 39.819923,3.5980719 50.55945,14.824957 c 5.90674,6.174787 10.752599,11.277406 10.768574,11.339154 0.01598,0.06175 -2.152947,7.748913 -4.819828,17.08259 -2.666881,9.333678 -4.848524,16.991341 -4.848095,17.017029 4.29e-4,0.02569 -0.04897,0.04528 -0.109773,0.04355 -0.06081,-0.0017 -11.037943,-2.845739 -24.393641,-6.320004 z"
       id="path21736"
       transform="scale(0.26458333)" />
  </g>
</svg>
