<?xml version="1.0" encoding="UTF-8" standalone="no"?>
<!-- Created with Inkscape (http://www.inkscape.org/) -->

<svg
   width="64"
   height="64"
   viewBox="0 0 16.933333 16.933334"
   version="1.1"
   id="svg162"
   inkscape:version="1.1.2 (0a00cf5339, 2022-02-04)"
   sodipodi:docname="twistedtrap_icon.svg"
   xmlns:inkscape="http://www.inkscape.org/namespaces/inkscape"
   xmlns:sodipodi="http://sodipodi.sourceforge.net/DTD/sodipodi-0.dtd"
   xmlns:xlink="http://www.w3.org/1999/xlink"
   xmlns="http://www.w3.org/2000/svg"
   xmlns:svg="http://www.w3.org/2000/svg">
  <sodipodi:namedview
     id="namedview164"
     pagecolor="#ffffff"
     bordercolor="#666666"
     borderopacity="1.0"
     inkscape:pageshadow="2"
     inkscape:pageopacity="0.0"
     inkscape:pagecheckerboard="0"
     inkscape:document-units="mm"
     showgrid="true"
     units="px"
     inkscape:zoom="11.313708"
     inkscape:cx="42.894486"
     inkscape:cy="32.964241"
     inkscape:window-width="2560"
     inkscape:window-height="1375"
     inkscape:window-x="0"
     inkscape:window-y="0"
     inkscape:window-maximized="1"
     inkscape:current-layer="layer1"
     inkscape:rotation="1">
    <inkscape:grid
       type="xygrid"
       id="grid166"
       empspacing="2" />
  </sodipodi:namedview>
  <defs
     id="defs159">
    <linearGradient
       inkscape:collect="always"
       id="linearGradient15326">
      <stop
         style="stop-color:#ebbdeb;stop-opacity:0"
         offset="0"
         id="stop15322" />
      <stop
         style="stop-color:#ebbdeb;stop-opacity:1"
         offset="1"
         id="stop15324" />
    </linearGradient>
    <linearGradient
       inkscape:collect="always"
       id="linearGradient14742">
      <stop
         style="stop-color:#d473d4;stop-opacity:1"
         offset="0"
         id="stop14738" />
      <stop
         style="stop-color:#ebbdeb;stop-opacity:0;"
         offset="1"
         id="stop14740" />
    </linearGradient>
    <linearGradient
       inkscape:collect="always"
       id="linearGradient14466">
      <stop
         style="stop-color:#d473d4;stop-opacity:1"
         offset="0"
         id="stop14462" />
      <stop
         style="stop-color:#350a35;stop-opacity:1"
         offset="1"
         id="stop14464" />
    </linearGradient>
    <inkscape:path-effect
       effect="bspline"
       id="path-effect33371"
       is_visible="true"
       lpeversion="1"
       weight="33.333333"
       steps="2"
       helper_size="0"
       apply_no_weight="true"
       apply_with_weight="true"
       only_selected="false" />
    <inkscape:path-effect
       effect="powerclip"
       id="path-effect31684"
       is_visible="true"
       lpeversion="1"
       inverse="true"
       flatten="false"
       hide_clip="false"
       message="Use fill-rule evenodd on &lt;b&gt;fill and stroke&lt;/b&gt; dialog if no flatten result after convert clip to paths." />
    <inkscape:path-effect
       effect="bspline"
       id="path-effect31247"
       is_visible="true"
       lpeversion="1"
       weight="33.333333"
       steps="2"
       helper_size="0"
       apply_no_weight="true"
       apply_with_weight="true"
       only_selected="false" />
    <clipPath
       clipPathUnits="userSpaceOnUse"
       id="clipPath31680">
      <path
         id="lpe_path-effect31684"
         style="color:#000000;overflow:visible;fill:none;fill-rule:evenodd;stroke:#000000;stroke-width:0.264583;stroke-linecap:round;stroke-linejoin:round"
         class="powerclip"
         d="M -94.815245,45.529259 H 48.056846 V 103.86257 H -94.815245 Z M -93.13333,25.4 c -10e-7,0 -10e-7,0 -10e-7,1e-6 v 50.799996 c 0,10e-7 0,2e-6 10e-7,2e-6 H 55.033339 c 1e-6,0 1e-6,-1e-6 1e-6,-2e-6 V 25.400001 c 0,-1e-6 0,-1e-6 -1e-6,-1e-6 z" />
    </clipPath>
    <inkscape:path-effect
       effect="bspline"
       id="path-effect31247-7"
       is_visible="true"
       lpeversion="1"
       weight="33.333333"
       steps="2"
       helper_size="0"
       apply_no_weight="true"
       apply_with_weight="true"
       only_selected="false" />
    <linearGradient
       inkscape:collect="always"
       xlink:href="#linearGradient14466"
       id="linearGradient14372"
       x1="56"
       y1="19"
       x2="45"
       y2="54"
       gradientUnits="userSpaceOnUse" />
    <linearGradient
       inkscape:collect="always"
       xlink:href="#linearGradient14742"
       id="linearGradient15128"
       gradientUnits="userSpaceOnUse"
       x1="41"
       y1="26"
       x2="20"
       y2="52" />
    <linearGradient
       inkscape:collect="always"
       xlink:href="#linearGradient15326"
       id="linearGradient15394"
       gradientUnits="userSpaceOnUse"
       x1="52"
       y1="5"
       x2="22"
       y2="39" />
  </defs>
  <g
     inkscape:label="Layer 1"
     inkscape:groupmode="layer"
     id="layer1">
    <path
       style="fill:#ebbdeb;stroke-width:0.52916667;stroke:#000000;stroke-opacity:1;stroke-miterlimit:4;stroke-dasharray:none;stroke-linejoin:round"
       d="m 4.3296669,15.776272 c -2.01746,-0.389723 -3.23146,-0.637081 -3.23146,-0.658422 0,-0.0188 1.28851,-1.683052 2.86335,-3.698338 l 2.86335,-3.6641552 0.63467,-0.52851 c 1.68514,-1.403286 3.2894301,-3.353097 4.5100501,-5.481404 0.22863,-0.398647 0.43786,-0.74715399 0.46494,-0.77445799 0.0379,-0.03825 0.39384,-0.09635 1.54998,-0.253058 0.8254,-0.111877 1.51858,-0.196562 1.5404,-0.188189 0.0572,0.02195 0.22873,1.75385299 0.28191,2.84653599 0.034,0.697808 0.0364,1.13976 0.0122,2.174441 -0.0281,1.199254 -0.0409,1.39915 -0.16641,2.612349 -0.11197,1.082042 -0.14506,1.322367 -0.18763,1.362727 -0.23292,0.220818 -7.8649401,6.8811812 -7.8818401,6.8783752 -0.0121,-0.002 -1.47616,-0.284563 -3.25346,-0.627894 z m 3.97929,-0.389047 C 10.598847,12.394806 12.314277,8.8650458 13.254597,5.2107888 c 0.13787,-0.535775 0.24309,-0.981719 0.23382,-0.990986 -0.0215,-0.02147 -2.05478,0.255135 -2.08165,0.28318 -0.011,0.0115 -0.19557,0.319898 -0.41011,0.685325 -0.56807,0.967559 -1.0695701,1.708565 -1.8870001,2.788203 -0.66219,0.874604 -1.38647,1.719888 -2.42434,2.8293922 -0.0498,0.05327 -0.47113,0.449226 -0.93622,0.879903 -1.15259,1.067303 -2.34582,1.99632 -3.62807,2.824713 l -0.91001,0.58791 3.14485,0.606554 c 1.72968,0.333605 3.16659,0.607832 3.19315,0.609395 0.0294,0.0017 0.3262,-0.360344 0.75994,-0.927153 z m 3.4351901,-2.680628 3.69981,-3.2395872 0.13285,-1.263535 c 0.12599,-1.198314 0.13437,-1.335241 0.16238,-2.65276 0.0245,-1.152256 0.0214,-1.548924 -0.018,-2.325444 -0.051,-1.005001 -0.19854,-2.53753099 -0.2403,-2.49577299 -0.014,0.01399 -0.4385,0.78821999 -0.94335,1.72050999 l -0.91792,1.695072 -0.27153,1.050124 c -0.36965,1.429601 -0.77039,2.603349 -1.38353,4.052384 -1.03248,2.4400072 -2.3165201,4.5899252 -4.0238001,6.7371772 l -0.10786,0.135655 0.1057,-0.08712 c 0.0581,-0.04791 1.77062,-1.544932 3.8055101,-3.326705 z m -9.5840001,1.688365 c 2.57787,-1.667168 4.92568,-3.864558 6.86194,-6.4223082 0.78712,-1.039762 1.4227001,-1.983958 1.9759101,-2.935349 l 0.35122,-0.604011 0.4545,-1.479828 c 0.24997,-0.813905 0.46718,-1.517201 0.48268,-1.562879 0.0155,-0.04568 0.0237,-0.08305 0.0183,-0.08305 -0.005,0 -0.14267,0.234432 -0.30495,0.52096 -0.3178,0.561107 -1.17847,1.876129 -1.40832,2.15179 -0.0277,0.03322 -0.29042,0.358677 -0.58381,0.723237 -0.7118401,0.884498 -1.7349801,1.931041 -2.5521901,2.610577 -0.3239,0.269333 -0.62705,0.539954 -0.67367,0.60138 -0.0466,0.06142 -0.11422,0.145658 -0.15022,0.187184 -0.036,0.04153 -1.20604,1.536454 -2.60007,3.3220632 -1.39404,1.785609 -2.5882,3.311115 -2.6537,3.390014 -0.0655,0.0789 -0.11221,0.143453 -0.1038,0.143453 0.008,0 0.40718,-0.253454 0.88618,-0.563231 z M 12.579987,4.2332498 l 0.97197,-0.129835 0.8992,-1.662195 c 0.49456,-0.914207 0.92341,-1.70384799 0.95299,-1.75475699 l 0.0538,-0.09256 -0.71695,0.09802 c -0.39432,0.05391 -1.04779,0.142567 -1.45215,0.197009 -0.40436,0.05444 -0.75247,0.11313999 -0.77358,0.13043999 -0.0345,0.02825 -1.04316,3.258919 -1.04316,3.341098 0,0.01986 0.0283,0.02751 0.068,0.01834 0.0374,-0.0086 0.50534,-0.07415 1.03993,-0.145563 z"
       id="path13455" />
    <path
       style="color:#000000;overflow:visible;fill:#ebbdeb;fill-rule:evenodd;stroke:#000000;stroke-width:0.176777;stroke-linecap:round;stroke-linejoin:round;stroke-miterlimit:4;stroke-dasharray:none;stroke-opacity:1"
       d="m 44.808737,15.255609 c -0.0034,-0.201244 3.171757,-10.3022252 3.286497,-10.4553108 0.04102,-0.054732 0.262797,-0.1260915 0.492833,-0.1585769 3.169429,-0.447584 7.823312,-1.0645235 7.848255,-1.0403997 0.01773,0.017145 -1.140191,2.1937178 -2.573153,4.8368295 -1.432961,2.6431119 -2.751704,5.0795229 -2.930538,5.4142449 -0.180628,0.338079 -0.408052,0.640115 -0.511655,0.679515 -0.102575,0.03901 -1.317802,0.216814 -2.700505,0.39512 -1.382702,0.178306 -2.603162,0.34504 -2.712132,0.37052 -0.10897,0.02548 -0.198791,0.0066 -0.199602,-0.04194 z"
       id="path13878"
       transform="scale(0.26458333)" />
    <path
       style="color:#000000;overflow:visible;fill:#ebbdeb;fill-rule:evenodd;stroke:#000000;stroke-width:0.176777;stroke-linecap:round;stroke-linejoin:round;stroke-miterlimit:4;stroke-dasharray:none;stroke-opacity:1"
       d="M 37.587544,51.639118 C 41.78628,45.08735 45.069256,38.522876 47.986457,30.84598 c 1.438165,-3.78467 2.446606,-7.019038 3.740397,-11.996563 l 0.726954,-2.796762 2.697985,-4.976993 c 1.483893,-2.7373458 2.713578,-4.9619124 2.732636,-4.9434813 0.07018,0.06787 0.356677,3.7577454 0.498763,6.4236003 0.109107,2.047116 0.134478,3.559442 0.09972,5.944325 -0.05703,3.913455 -0.133963,6.58422 -0.228451,7.931147 -0.148472,2.11647 -0.856193,8.727041 -0.94733,8.848674 -0.101247,0.135124 -20.936513,18.390632 -20.990516,18.391533 -0.01752,2.93e-4 0.554397,-0.914261 1.270926,-2.032342 z"
       id="path13917"
       transform="scale(0.26458333)" />
    <path
       style="color:#000000;overflow:visible;fill:#ebbdeb;fill-rule:evenodd;stroke:#000000;stroke-width:0.176777;stroke-linecap:round;stroke-linejoin:round;stroke-miterlimit:4;stroke-dasharray:none;stroke-opacity:1"
       d="M 25.046305,59.952806 C 23.460986,59.644036 18.911391,58.76748 14.936095,58.004903 10.960798,57.242326 7.6345008,56.589934 7.544323,56.555142 7.4133493,56.50461 7.5623548,56.375033 8.2849715,55.911065 12.551541,53.171643 16.71219,50.022112 20.580121,46.603875 25.10329,42.60658 28.31336,39.286551 32.406228,34.372677 c 2.968265,-3.563685 6.61984,-8.604184 8.78073,-12.120599 0.587322,-0.95575 2.523792,-4.213526 2.556162,-4.300304 0.003,-0.008 1.176211,-0.176437 2.607206,-0.374399 1.430995,-0.197962 2.750598,-0.383068 2.932452,-0.411346 0.211595,-0.0329 0.331236,-0.01597 0.332288,0.04703 9.05e-4,0.05415 -0.149684,0.703561 -0.33464,1.443144 -3.565273,14.25642 -10.254277,28.000364 -19.26539,39.584737 -1.544565,1.985638 -1.801515,2.285369 -1.953637,2.278902 -0.07298,-0.0031 -1.429775,-0.258271 -3.015094,-0.567039 z"
       id="path14030"
       transform="scale(0.26458333)" />
    <path
       style="color:#000000;overflow:visible;fill:url(#linearGradient15394);fill-rule:evenodd;stroke:#000000;stroke-width:0.176777;stroke-linecap:round;stroke-linejoin:round;stroke-miterlimit:4;stroke-dasharray:none;stroke-opacity:1;fill-opacity:1"
       d="m 10.247666,51.255938 c 0.399898,-0.505038 3.624286,-4.626427 7.165308,-9.158643 7.795404,-9.977472 8.969619,-11.461042 9.402975,-11.880256 0.184857,-0.178825 1.159642,-1.034561 2.166188,-1.901637 2.244637,-1.933613 3.765256,-3.388076 5.916725,-5.65931 2.56382,-2.70654 5.576433,-6.34674 7.167664,-8.660835 0.481479,-0.700204 0.891482,-1.257559 0.911118,-1.238569 0.01964,0.01899 -0.212102,0.847748 -0.514973,1.841683 l -0.550676,1.807153 -1.273821,2.142891 c -4.401369,7.404223 -9.267058,13.870134 -14.846965,19.72982 -4.214548,4.425868 -7.973073,7.819007 -12.26789,11.075265 -1.548455,1.174011 -3.8471406,2.81809 -3.9423671,2.81968 -0.033204,5.55e-4 0.2668175,-0.412204 0.6667141,-0.917242 z"
       id="path14069"
       transform="scale(0.26458333)" />
    <path
       style="color:#000000;overflow:visible;fill:#ebbdeb;fill-rule:evenodd;stroke:#000000;stroke-width:0.176777;stroke-linecap:round;stroke-linejoin:round;stroke-miterlimit:4;stroke-dasharray:none;stroke-opacity:1"
       d="m 37.063197,52.755661 c 0.02858,-0.08404 0.319004,-0.566251 0.645385,-1.071587 4.233026,-6.553998 8.005079,-14.210964 10.858159,-22.041195 1.230592,-3.377339 2.051418,-6.07772 3.35762,-11.046011 l 0.65827,-2.503805 1.096877,-2.028615 C 54.282791,12.94871 55.387456,10.920753 56.13432,9.5578777 56.881183,8.1950022 57.568885,6.9310259 57.662545,6.7490414 57.78393,6.5131865 57.834086,6.4685393 57.837187,6.59358 c 0.0024,0.096481 0.07965,1.0891088 0.171689,2.2058402 0.426116,5.1703618 0.442209,13.7279908 0.03491,18.5635588 -0.228735,2.715596 -0.776012,7.640642 -0.867129,7.803455 -0.08599,0.153656 -5.110304,4.580382 -15.476262,13.635534 -2.348139,2.051211 -4.363803,3.814301 -4.479252,3.917979 -0.173501,0.155811 -0.200896,0.162005 -0.157945,0.03571 z"
       id="path14108"
       transform="scale(0.26458333)" />
    <path
       style="color:#000000;overflow:visible;fill:url(#linearGradient15128);fill-rule:evenodd;stroke:#000000;stroke-width:0.176777;stroke-linecap:round;stroke-linejoin:round;stroke-miterlimit:4;stroke-dasharray:none;stroke-opacity:1;fill-opacity:1"
       d="M 18.481413,58.561224 C 13.432845,57.581687 8.9729483,56.716658 8.5705321,56.638937 8.168116,56.561216 7.838398,56.469581 7.8378255,56.435305 7.8372531,56.401029 8.5218875,55.919048 9.3592354,55.364235 20.510343,47.975695 30.018448,38.608857 38.231358,26.92108 c 1.859398,-2.646103 4.221111,-6.375753 5.399424,-8.52684 0.196146,-0.358076 0.225193,-0.375385 0.735191,-0.438089 0.292038,-0.03591 1.537555,-0.201017 2.767816,-0.366913 1.23026,-0.165896 2.256977,-0.282152 2.281591,-0.258346 0.142165,0.137494 -1.448645,5.819162 -2.539341,9.0694 -3.881928,11.568022 -9.579966,22.213382 -17.068548,31.888317 -1.392137,1.798584 -1.638682,2.062568 -1.921635,2.057569 -0.123875,-0.0022 -4.355874,-0.805417 -9.404443,-1.784954 z"
       id="path14221"
       transform="scale(0.26458333)" />
    <path
       style="color:#000000;overflow:visible;fill:url(#linearGradient14372);fill-rule:evenodd;stroke:#000000;stroke-width:0.176777;stroke-linecap:round;stroke-linejoin:round;stroke-miterlimit:4;stroke-dasharray:none;stroke-opacity:1;fill-opacity:1"
       d="m 37.644871,52.101461 c -6.65e-4,-0.03981 0.380699,-0.678888 0.847477,-1.420166 3.372468,-5.355743 6.784528,-12.179463 9.237805,-18.474531 1.67817,-4.306156 2.621956,-7.247984 4.101469,-12.784492 l 0.877978,-3.285489 2.10901,-3.880654 c 1.159956,-2.134359 2.288948,-4.2147198 2.508873,-4.6230234 l 0.399861,-0.7423702 0.07461,0.911247 c 0.40832,4.9868156 0.51039,11.9981426 0.252592,17.3507996 -0.09659,2.005574 -0.742105,8.616141 -0.949365,9.722281 -0.05453,0.291031 -1.273282,1.384638 -12.009779,10.776612 -3.92946,3.437376 -7.213065,6.311063 -7.296899,6.385973 -0.08384,0.07491 -0.152971,0.103624 -0.153635,0.06381 z"
       id="path14260"
       transform="scale(0.26458333)" />
  </g>
</svg>
