<?xml version="1.0" encoding="UTF-8" standalone="no"?>
<!-- Created with Inkscape (http://www.inkscape.org/) -->

<svg
   width="64"
   height="64"
   viewBox="0 0 16.933333 16.933334"
   version="1.1"
   id="svg162"
   inkscape:version="1.1.2 (0a00cf5339, 2022-02-04)"
   sodipodi:docname="twistedubs_icon.svg"
   xmlns:inkscape="http://www.inkscape.org/namespaces/inkscape"
   xmlns:sodipodi="http://sodipodi.sourceforge.net/DTD/sodipodi-0.dtd"
   xmlns:xlink="http://www.w3.org/1999/xlink"
   xmlns="http://www.w3.org/2000/svg"
   xmlns:svg="http://www.w3.org/2000/svg">
  <sodipodi:namedview
     id="namedview164"
     pagecolor="#ffffff"
     bordercolor="#666666"
     borderopacity="1.0"
     inkscape:pageshadow="2"
     inkscape:pageopacity="0.0"
     inkscape:pagecheckerboard="0"
     inkscape:document-units="mm"
     showgrid="true"
     units="px"
     inkscape:zoom="11.313708"
     inkscape:cx="29.530612"
     inkscape:cy="34.690253"
     inkscape:window-width="2560"
     inkscape:window-height="1375"
     inkscape:window-x="0"
     inkscape:window-y="0"
     inkscape:window-maximized="1"
     inkscape:current-layer="layer1"
     inkscape:rotation="1">
    <inkscape:grid
       type="xygrid"
       id="grid166"
       empspacing="2" />
  </sodipodi:namedview>
  <defs
     id="defs159">
    <linearGradient
       inkscape:collect="always"
       id="linearGradient23632">
      <stop
         style="stop-color:#d473d4;stop-opacity:1"
         offset="0"
         id="stop23628" />
      <stop
         style="stop-color:#350a35;stop-opacity:1"
         offset="1"
         id="stop23630" />
    </linearGradient>
    <linearGradient
       inkscape:collect="always"
       id="linearGradient23079-3">
      <stop
         style="stop-color:#d473d4;stop-opacity:1"
         offset="0"
         id="stop23075" />
      <stop
         style="stop-color:#ebbdeb;stop-opacity:1"
         offset="1"
         id="stop23077" />
    </linearGradient>
    <inkscape:path-effect
       effect="bspline"
       id="path-effect19607"
       is_visible="true"
       lpeversion="1"
       weight="33.333333"
       steps="2"
       helper_size="0"
       apply_no_weight="true"
       apply_with_weight="true"
       only_selected="false" />
    <inkscape:path-effect
       effect="bspline"
       id="path-effect33371"
       is_visible="true"
       lpeversion="1"
       weight="33.333333"
       steps="2"
       helper_size="0"
       apply_no_weight="true"
       apply_with_weight="true"
       only_selected="false" />
    <inkscape:path-effect
       effect="powerclip"
       id="path-effect31684"
       is_visible="true"
       lpeversion="1"
       inverse="true"
       flatten="false"
       hide_clip="false"
       message="Use fill-rule evenodd on &lt;b&gt;fill and stroke&lt;/b&gt; dialog if no flatten result after convert clip to paths." />
    <inkscape:path-effect
       effect="bspline"
       id="path-effect31247"
       is_visible="true"
       lpeversion="1"
       weight="33.333333"
       steps="2"
       helper_size="0"
       apply_no_weight="true"
       apply_with_weight="true"
       only_selected="false" />
    <clipPath
       clipPathUnits="userSpaceOnUse"
       id="clipPath31680">
      <path
         id="lpe_path-effect31684"
         style="color:#000000;overflow:visible;fill:none;fill-rule:evenodd;stroke:#000000;stroke-width:0.264583;stroke-linecap:round;stroke-linejoin:round"
         class="powerclip"
         d="M -94.815245,45.529259 H 48.056846 V 103.86257 H -94.815245 Z M -93.13333,25.4 c -10e-7,0 -10e-7,0 -10e-7,1e-6 v 50.799996 c 0,10e-7 0,2e-6 10e-7,2e-6 H 55.033339 c 1e-6,0 1e-6,-1e-6 1e-6,-2e-6 V 25.400001 c 0,-1e-6 0,-1e-6 -1e-6,-1e-6 z" />
    </clipPath>
    <inkscape:path-effect
       effect="bspline"
       id="path-effect31247-7"
       is_visible="true"
       lpeversion="1"
       weight="33.333333"
       steps="2"
       helper_size="0"
       apply_no_weight="true"
       apply_with_weight="true"
       only_selected="false" />
    <linearGradient
       inkscape:collect="always"
       xlink:href="#linearGradient23079-3"
       id="linearGradient23305"
       gradientUnits="userSpaceOnUse"
       x1="28"
       y1="13"
       x2="30"
       y2="23" />
    <linearGradient
       inkscape:collect="always"
       xlink:href="#linearGradient23632"
       id="linearGradient23634"
       x1="37"
       y1="41"
       x2="33"
       y2="63"
       gradientUnits="userSpaceOnUse" />
  </defs>
  <g
     inkscape:label="Layer 1"
     inkscape:groupmode="layer"
     id="layer1">
    <path
       style="fill:#ebbdeb;stroke-width:0.52916667;stroke:#000000;stroke-opacity:1;stroke-miterlimit:4;stroke-dasharray:none;stroke-linejoin:round"
       d="m 6.5281095,16.378693 c -0.06223,-0.04863 -0.517947,-1.174577 -0.517947,-1.279709 0,-0.05008 0.08509,-0.566758 0.189083,-1.148176 0.234111,-1.308863 0.577096,-2.758482 1.036096,-4.3790372 l 0.316662,-1.118012 -0.165387,-0.558344 C 7.1099675,6.9614522 6.6190035,5.0528757 6.4291675,4.1734167 6.2481635,3.3348827 6.0101625,2.0028472 6.0101625,1.8283492 c 0,-0.065396 0.07037,-0.2637615 0.228791,-0.6448913 0.125836,-0.30274425 0.244768,-0.57482655 0.264294,-0.60462765 0.04929,-0.075226 0.09883,-0.070961 0.629039,0.054161 0.628535,0.1483239 1.257794,0.38693245 1.755026,0.66548675 0.409012,0.229133 0.413661,0.2323317 0.811751,0.5585201 0.4000855,0.3278229 0.7316965,0.732982 0.9397535,1.1481831 0.137063,0.2735223 0.16041,0.3417979 0.223702,0.6541763 0.06738,0.3325664 0.06969,0.3637027 0.04962,0.6697845 -0.01868,0.2849534 -0.03457,0.3650666 -0.141495,0.7133429 -0.193394,0.6299376 -0.285268,1.0680236 -0.411402,1.9616929 -0.06222,0.440824 -0.07215,0.591294 -0.08478,1.284017 -0.01168,0.641096 -0.0071,0.852117 0.02509,1.153238 0.08854,0.8284242 0.255264,1.7428612 0.40753,2.2351412 0.176348,0.570138 0.201383,0.708133 0.200954,1.107651 l -4.05e-4,0.37848 -0.103612,0.335205 c -0.08785,0.284207 -0.131839,0.381881 -0.28915,0.642009 -0.157361,0.260208 -0.232748,0.354915 -0.496378,0.62359 -0.7325645,0.746582 -1.7319425,1.268324 -2.9673095,1.549135 -0.47229,0.107356 -0.470502,0.107129 -0.523077,0.06605 z m 0.575846,-0.302076 c 1.081851,-0.253603 2.182811,-0.843133 2.799632,-1.499115 0.3384445,-0.359931 0.5641985,-0.736998 0.6926955,-1.156979 0.09295,-0.303792 0.09586,-0.323772 0.100491,-0.689565 0.0048,-0.376197 0.0046,-0.377321 -0.107149,-0.828492 -0.247639,-0.999647 -0.341773,-1.514359 -0.432697,-2.3659212 -0.05645,-0.528714 -0.03417,-1.966641 0.03846,-2.4815463 0.02741,-0.1943738 0.04632,-0.3569313 0.04201,-0.3612389 -0.0043,-0.00431 -0.08655,0.2189263 -0.182753,0.4960755 -0.2208395,0.6361827 -0.9670425,2.6783347 -1.3266705,3.6307279 -0.788942,2.089333 -1.301398,3.471105 -1.556475,4.196834 -0.156284,0.44465 -0.310087,0.880681 -0.341784,0.968958 -0.0317,0.08828 -0.04984,0.160374 -0.04031,0.160219 0.0095,-1.8e-4 0.151074,-0.03164 0.314549,-0.06996 z m -0.216537,-0.958163 c 0.256623,-0.73219 0.984052,-2.696213 1.631472,-4.404893 0.62331,-1.6450492 1.234631,-3.3471082 1.6888435,-4.7021301 0.260412,-0.7768694 0.26736,-0.8029197 0.21736,-0.8149636 -0.07844,-0.018894 -1.5485625,-0.2702501 -1.5516915,-0.2653022 -0.0041,0.00642 -0.50338,1.6051782 -0.773682,2.4772407 -0.768213,2.478449 -1.373059,4.8359312 -1.685647,6.5700712 -0.104449,0.579455 -0.189908,1.074254 -0.189908,1.099554 0,0.04975 0.336758,0.878018 0.357133,0.878381 0.0068,9e-5 0.144546,-0.376961 0.30612,-0.837958 z m 0.964894,-7.6624922 c 0.08734,-0.2877151 0.312356,-1.020675 0.500032,-1.6287997 0.187675,-0.6081249 0.366336,-1.2126829 0.397022,-1.3434624 0.05166,-0.2201467 0.05382,-0.255617 0.0292,-0.4782808 C 8.7546465,3.7890535 8.7387565,3.7377518 8.6202835,3.4941898 8.3718115,2.9833785 7.9416485,2.6034029 7.2585095,2.2912927 6.9571885,2.1536263 6.5308925,2.0056997 6.3224555,1.9664775 c -0.07737,-0.014559 -0.07957,-0.012882 -0.06572,0.050286 0.0079,0.035941 0.02066,0.1348991 0.02841,0.2199058 0.0078,0.085007 0.0234,0.1759579 0.03477,0.2021138 0.01137,0.026156 0.04913,0.2294586 0.08389,0.4517838 0.03477,0.2223253 0.09979,0.5735299 0.144494,0.7804548 0.0447,0.2069245 0.128981,0.5974798 0.187281,0.8679004 0.0583,0.2704205 0.224776,0.9410795 0.369947,1.4903536 0.14517,0.549274 0.277502,1.0521808 0.294071,1.1175705 0.08973,0.3541206 0.261741,0.8907266 0.27677,0.8633936 0.0094,-0.01714 0.0886,-0.266563 0.175938,-0.554278 z M 10.690751,4.3172529 C 10.706291,4.0842597 10.701071,4.0201506 10.642971,3.7302455 10.585771,3.4448232 10.559301,3.3678554 10.42778,3.1044266 9.9991175,2.2458619 9.1569075,1.5705942 7.9440745,1.1130422 7.6196035,0.99063225 7.3484245,0.90682145 7.0746975,0.84435175 c -0.218797,-0.049934 -0.401499,-0.086119 -0.406003,-0.080412 -0.0045,0.00571 -0.08085,0.1869292 -0.169666,0.40271555 -0.08881,0.2157861 -0.169463,0.4030387 -0.179225,0.4161166 -0.0098,0.013078 -0.02448,0.052003 -0.0327,0.0865 -0.01419,0.059549 -0.0092,0.063574 0.09778,0.079565 0.208451,0.031145 0.633358,0.1752237 0.968741,0.3284838 0.703769,0.3216026 1.219004,0.7812123 1.480616,1.3207687 0.124459,0.2566881 0.132483,0.2846675 0.165797,0.5781611 0.03387,0.2983597 0.03334,0.3150583 -0.01605,0.5119863 -0.02808,0.1119621 -0.04712,0.2075023 -0.04231,0.2123116 0.0048,0.00481 0.366374,0.070645 0.803477,0.1463012 l 0.7947345,0.1375572 0.06671,-0.2027979 c 0.04724,-0.1436242 0.0718,-0.2791168 0.08415,-0.4643568 z"
       id="path22243" />
    <path
       style="color:#000000;overflow:visible;fill:#ebbdeb;fill-opacity:1;fill-rule:evenodd;stroke:#000000;stroke-width:0.176777;stroke-linecap:round;stroke-linejoin:round;stroke-miterlimit:4;stroke-dasharray:none;stroke-opacity:1"
       d="M 36.995919,17.297368 35.11043,16.961125 35.05712,15.591805 C 35.0278,14.838679 34.950489,14.024474 34.885318,13.782461 34.711937,13.138615 33.938618,11.612022 33.453045,10.955038 31.816471,8.7407467 29.067478,6.9741447 25.588525,5.9010141 L 25.130534,5.7597407 25.46954,4.9406627 c 0.186453,-0.4504928 0.352067,-0.8326692 0.36803,-0.8492808 0.01596,-0.016611 0.440385,0.068729 0.943157,0.1896454 2.9098,0.6998047 6.277322,2.2731304 8.323684,3.8888723 2.022383,1.5968089 3.535003,3.7942714 4.042929,5.8733744 0.329017,1.346771 0.247634,3.522916 -0.133621,3.572968 -0.07277,0.0096 -0.980781,-0.13394 -2.0178,-0.318874 z"
       id="path22683"
       transform="scale(0.26458333)" />
    <path
       style="color:#000000;overflow:visible;fill:#ebbdeb;fill-opacity:1;fill-rule:evenodd;stroke:#000000;stroke-width:0.176777;stroke-linecap:round;stroke-linejoin:round;stroke-miterlimit:4;stroke-dasharray:none;stroke-opacity:1"
       d="m 27.249204,59.52661 c -0.0032,-0.193154 3.017937,-8.43853 5.89949,-16.100918 0.883198,-2.348529 2.152783,-5.759638 2.821299,-7.580243 l 1.215485,-3.31019 0.08593,1.918244 c 0.147201,3.285971 0.582427,6.041859 1.597303,10.114264 0.477824,1.91737 0.48275,1.950498 0.492188,3.310125 0.0081,1.170396 -0.02069,1.484439 -0.194973,2.124872 -0.692743,2.545618 -2.300263,4.613468 -5.028305,6.46821 -1.281804,0.871474 -3.586354,2.00837 -5.235973,2.583044 -1.427076,0.497149 -1.650966,0.56118 -1.652445,0.472592 z"
       id="path22767"
       transform="scale(0.26458333)" />
    <path
       style="color:#000000;overflow:visible;fill:#ebbdeb;fill-opacity:1;fill-rule:evenodd;stroke:#000000;stroke-width:0.176777;stroke-linecap:round;stroke-linejoin:round;stroke-miterlimit:4;stroke-dasharray:none;stroke-opacity:1"
       d="m 24.667145,57.159377 c -0.151038,-0.411052 0.90066,-6.084487 2.015378,-10.872055 1.417483,-6.087901 2.825969,-11.142604 5.750498,-20.637084 0.96665,-3.138228 1.757189,-5.727206 1.756753,-5.753285 -4.36e-4,-0.02608 0.08872,-0.04703 0.198124,-0.04655 0.310848,0.0013 3.687873,0.599098 3.755803,0.664796 0.03335,0.03226 -0.01826,0.289657 -0.114695,0.571999 -0.09643,0.282342 -0.5158,1.513543 -0.931923,2.736002 -1.614417,4.742732 -3.288206,9.394423 -5.504172,15.296846 -2.674681,7.12425 -4.897855,13.111203 -5.796986,15.611139 -0.501389,1.394055 -0.939436,2.567958 -0.973438,2.608675 -0.034,0.04072 -0.103907,-0.0405 -0.155342,-0.18048 z"
       id="path22806"
       transform="scale(0.26458333)" />
    <path
       style="color:#000000;overflow:visible;fill:#ebbdeb;fill-opacity:1;fill-rule:evenodd;stroke:#000000;stroke-width:0.176777;stroke-linecap:round;stroke-linejoin:round;stroke-miterlimit:4;stroke-dasharray:none;stroke-opacity:1"
       d="M 27.979916,22.936763 C 26.524358,17.313494 25.906049,14.594911 25.295885,11.135612 25.139864,10.251055 24.98134,9.3572562 24.943611,9.1493929 l -0.0686,-0.3779334 0.456723,0.1725495 c 0.251198,0.094902 0.65615,0.2479093 0.899892,0.3400158 1.310005,0.4950305 2.856297,1.4063772 3.761993,2.2172272 0.691365,0.618964 1.248919,1.375062 1.711805,2.321376 0.319268,0.652705 0.374546,0.854357 0.430431,1.570191 0.06094,0.780628 0.04715,0.880707 -0.278445,2.020441 -0.676642,2.368542 -2.801588,9.240462 -2.857641,9.241398 -0.03148,5.26e-4 -0.490419,-1.672527 -1.019854,-3.717895 z"
       id="path22845"
       transform="scale(0.26458333)" />
    <path
       style="color:#000000;overflow:visible;fill:url(#linearGradient23634);fill-opacity:1;fill-rule:evenodd;stroke:#000000;stroke-width:0.176777;stroke-linecap:round;stroke-linejoin:round;stroke-miterlimit:4;stroke-dasharray:none;stroke-opacity:1"
       d="m 27.586923,58.922401 c 0.419085,-1.272506 2.268899,-6.297004 6.550968,-17.793865 1.563451,-4.197683 2.846818,-7.680004 2.851927,-7.738491 0.02763,-0.316318 0.167105,0.801867 0.184847,1.481941 0.06476,2.482465 0.645431,6.027225 1.610218,9.829782 0.377464,1.487715 0.391736,1.591946 0.416653,3.042864 0.02226,1.295741 -3.1e-5,1.598806 -0.162003,2.203443 -0.931497,3.477258 -3.825519,6.269985 -8.691756,8.387538 -0.73684,0.320637 -2.711505,1.050068 -2.848885,1.052362 -0.03611,6.03e-4 0.0035,-0.208905 0.08803,-0.465574 z"
       id="path22884"
       transform="scale(0.26458333)" />
    <path
       style="color:#000000;overflow:visible;fill:#d473d4;fill-opacity:1;fill-rule:evenodd;stroke:#000000;stroke-width:0.176777;stroke-linecap:round;stroke-linejoin:round;stroke-miterlimit:4;stroke-dasharray:none;stroke-opacity:1"
       d="m 24.814692,56.671019 c -0.0055,-0.329452 0.418333,-2.82522 0.8545,-5.031744 0.819239,-4.144449 1.927849,-8.798281 3.203079,-13.446199 1.06013,-3.863927 1.670574,-5.921483 4.566469,-15.391686 l 0.849088,-2.776702 0.25021,-0.0042 c 0.293777,-0.0049 3.375387,0.532822 3.44625,0.601357 0.04726,0.04571 -0.753537,2.442521 -2.273535,6.804713 -1.063025,3.050745 -2.858503,7.950271 -5.687785,15.520914 -1.334762,3.57158 -3.035421,8.154734 -3.779241,10.184787 -0.743821,2.030051 -1.368789,3.707947 -1.388818,3.728656 -0.02003,0.02071 -0.03813,-0.06475 -0.04022,-0.189917 z"
       id="path22960"
       transform="scale(0.26458333)" />
    <path
       style="color:#000000;overflow:visible;fill:url(#linearGradient23305);fill-opacity:1;fill-rule:evenodd;stroke:#000000;stroke-width:0.176777;stroke-linecap:round;stroke-linejoin:round;stroke-miterlimit:4;stroke-dasharray:none;stroke-opacity:1"
       d="M 28.914512,25.904676 C 28.739237,25.32205 27.614575,21.009401 27.147104,19.127343 26.272973,15.608052 24.980292,9.2029948 25.115862,9.062819 c 0.09336,-0.096536 2.09528,0.7578754 2.946472,1.257545 1.799938,1.056604 2.607121,1.858209 3.396716,3.373242 0.462808,0.888011 0.473559,0.925449 0.517947,1.803563 l 0.04533,0.896729 -0.712759,2.398722 c -0.392018,1.319298 -1.067461,3.538386 -1.500985,4.931307 -0.787313,2.529653 -0.788348,2.532177 -0.89407,2.180749 z"
       id="path22999"
       transform="scale(0.26458333)" />
  </g>
</svg>
