<?xml version="1.0" encoding="iso-8859-1"?>
<!-- Generator: Adobe Illustrator 19.0.0, SVG Export Plug-In . SVG Version: 6.00 Build 0)  -->
<svg version="1.1" id="Capa_1" xmlns="http://www.w3.org/2000/svg" xmlns:xlink="http://www.w3.org/1999/xlink" x="0px" y="0px"
	 viewBox="0 0 480.052 480.052" style="enable-background:new 0 0 480.052 480.052;" xml:space="preserve">
<path style="fill:#6A9923;" d="M250.673,58.692l-26.576-42.664h-37.432c-17.146-0.003-33.036,8.993-41.856,23.696l-24.8,40.304
	l88,56L250.673,58.692z"/>
<path style="fill:#88B337;" d="M390.801,92.932l-30.792-52.904c-7.836-14.813-23.242-24.057-40-24h-95.912l71.912,136l-40,24
	l119.056,13.544l56.944-117.544L390.801,92.932z"/>
<path style="fill:#6A9923;" d="M440.009,184.028l-96,56l40,72h64l16.72-27c9.285-15.032,9.719-33.909,1.136-49.352L440.009,184.028z
	"/>
<path style="fill:#88B337;" d="M288.009,312.028v-40l-80,88l80,104v-32h64c16.853,0.411,32.432-8.936,40-24l56-96H288.009z"/>
<path style="fill:#6A9923;" d="M88.009,320.028l-19.48,44.896l24.344,42.168c9.03,15.283,25.386,24.738,43.136,24.936h32v-112
	H88.009z"/>
<path style="fill:#88B337;" d="M184.009,248.028l-48-104l-128,8l45.752,28.368l-29.752,59.632c-8.276,14.93-8.276,33.07,0,48
	l44.512,76.896l16.656-28.896l59.456-103.2L184.009,248.028z"/>
<path d="M248.193,177.724c0.725,3.351,3.505,5.867,6.912,6.256l119.064,13.536c0.3,0.032,0.602,0.048,0.904,0.048
	c3.066,0,5.863-1.752,7.2-4.512l56.936-117.536c1.926-3.976,0.265-8.761-3.711-10.688c-2.248-1.089-4.876-1.066-7.105,0.064
	l-34.48,17.488l-26.984-46.352c-9.237-17.313-27.298-28.09-46.92-28H186.665c-19.909,0.048-38.353,10.472-48.664,27.504
	l-24.8,40.304c-2.292,3.724-1.17,8.598,2.52,10.944l88,56c1.282,0.815,2.769,1.247,4.288,1.248c0.664,0.001,1.325-0.083,1.968-0.248
	c2.135-0.541,3.953-1.939,5.024-3.864l33.6-60.456l36.8,69.6l-33.504,20.104C248.955,170.928,247.464,174.372,248.193,177.724
	L248.193,177.724z M205.137,124.716l-74.184-47.2l20.72-33.664c7.401-12.267,20.666-19.782,34.992-19.824h32.48l19.824,39.8
	L205.137,124.716z M300.129,158.884c3.639-2.188,4.935-6.837,2.952-10.592L237.377,24.028h82.632
	c13.895-0.02,26.648,7.688,33.088,20l30.784,52.904c2.137,3.656,6.752,5.013,10.528,3.096l20.048-10.16l-44.112,91.112
	l-89.984-10.232L300.129,158.884z"/>
<path d="M398.921,412.028l56-95.952l16.64-26.88c10.763-17.383,11.332-39.216,1.488-57.136l-25.856-51.648
	c-1.974-3.953-6.779-5.556-10.732-3.582c-0.159,0.079-0.315,0.164-0.468,0.254l-96,56c-3.762,2.194-5.077,6.994-2.96,10.8
	l33.376,60.144h-74.4v-32c0.002-4.418-3.579-8.001-7.997-8.003c-2.255-0.001-4.406,0.95-5.923,2.619l-80,88
	c-2.607,2.869-2.782,7.194-0.416,10.264l80,104c2.697,3.499,7.721,4.149,11.22,1.452c1.964-1.514,3.115-3.852,3.116-6.332v-24h56
	C371.735,440.515,389.986,429.622,398.921,412.028L398.921,412.028z M354.809,242.996l81.864-47.768l22.2,44.32
	c7.166,12.915,6.802,28.693-0.952,41.264l-14.4,23.2h-54.808L354.809,242.996z M288.009,424.028c-4.418,0-8,3.582-8,8v8.48
	l-61.6-80.048l61.6-67.744v19.312c0,4.418,3.582,8,8,8h146.072l-49.072,84.128c-6.164,12.51-19.059,20.275-33,19.872H288.009z"/>
<path d="M3.793,158.828l39.552,24.528l-26.4,52.864c-9.569,17.385-9.514,38.472,0.144,55.808l44.52,76.88l24.344,42.168
	c10.455,17.76,29.448,28.746,50.056,28.952h32c4.418,0,8-3.582,8-8v-112c0-4.418-3.582-8-8-8h-59.768l39.904-69.24l32.992,12.704
	c4.124,1.585,8.752-0.473,10.338-4.597c0.775-2.015,0.702-4.258-0.202-6.219l-48-104c-1.38-3.006-4.467-4.853-7.768-4.648l-128,8
	c-4.41,0.274-7.763,4.07-7.489,8.48c0.161,2.588,1.565,4.938,3.769,6.304L3.793,158.828z M160.009,424.028h-24
	c-14.908-0.144-28.651-8.089-36.216-20.936l-21.96-38.048l22.656-37.016h59.52V424.028z M131.041,152.356l37.44,81.12l-20.976-8.08
	c-3.676-1.412-7.833,0.06-9.8,3.472l-69.2,120.064l-37.568-64.904c-6.906-12.618-6.803-27.908,0.272-40.432l29.752-59.632
	c1.863-3.706,0.585-8.221-2.944-10.4l-24.472-15.136L131.041,152.356z"/>
<g>
</g>
<g>
</g>
<g>
</g>
<g>
</g>
<g>
</g>
<g>
</g>
<g>
</g>
<g>
</g>
<g>
</g>
<g>
</g>
<g>
</g>
<g>
</g>
<g>
</g>
<g>
</g>
<g>
</g>
</svg>
