<svg height='100px' width='100px'  fill="#000000" xmlns="http://www.w3.org/2000/svg" xmlns:xlink="http://www.w3.org/1999/xlink" viewBox="0 0 54 60" version="1.1" x="0px" y="0px"><title>3D GUI - Outline - 056 - Cube Tessellate</title><desc>Created with Sketch.</desc><g stroke="none" stroke-width="1" fill="none" fill-rule="evenodd"><g fill-rule="nonzero" fill="#000000"><path d="M53.96667,13.82062 C53.9557126,13.6885087 53.9054119,13.5627135 53.82226,13.45947 C53.7979601,13.4153579 53.7702243,13.3732277 53.73931,13.33347 C53.73296,13.32639 53.73015,13.31647 53.72362,13.30961 L53.72162,13.30761 C53.6590282,13.2353434 53.5807394,13.1783472 53.49274,13.14098 C53.47559,13.13109 53.46515,13.11443 53.44721,13.10546 L27.44721,0.10546 C27.43866,0.1012 27.42859,0.103 27.41992,0.099 C27.1555524,-0.0329909728 26.8445076,-0.0329909728 26.58014,0.099 C26.57141,0.103 26.56134,0.10114 26.55274,0.10547 L0.55274,13.10547 L0.54395,13.11231 C0.51895,13.12519 0.4936,13.13752 0.46973,13.15231 C0.426789979,13.1830677 0.386450828,13.217303 0.34912,13.25467 C0.32501,13.27573 0.29912,13.29251 0.27722,13.31567 C0.26709,13.32635 0.25439,13.33467 0.24481,13.34576 C0.2359,13.35601 0.2315,13.36853 0.22308,13.37909 C0.172666084,13.4394589 0.129579332,13.5055861 0.09472,13.57609 L0.08672,13.59825 C0.08141,13.61025 0.07848,13.62254 0.07366,13.63481 L0.06475,13.65953 C0.05913,13.67503 0.05321,13.68953 0.04833,13.70531 C0.04333,13.72155 0.03545,13.73631 0.03124,13.75286 L0.03024,13.75486 L0.03024,13.75686 C0.0245123984,13.8012933 0.0217596025,13.8460597 0.022,13.89086 C0.0125102067,13.9267719 0.00516391246,13.9632162 0,14 L0,46 C0,46.011 0.00592,46.02008 0.00629,46.031 C0.00684,46.04882 0.00238,46.0661 0.00391,46.084 C0.0130879281,46.1815114 0.0367653225,46.2771074 0.07416,46.36763 C0.08283,46.38954 0.09516,46.40797 0.10529,46.42909 C0.146852776,46.5158132 0.200870616,46.5959943 0.26563,46.66709 C0.28211,46.68522 0.29563,46.70438 0.31336,46.72123 C0.384095541,46.7905853 0.464775684,46.8490074 0.55274,46.89457 L26.55274,59.89457 C26.55974,59.89811 26.56806,59.89657 26.57514,59.89988 C26.7073318,59.964054 26.8520651,59.9982414 26.999,60 L26.99973,59.99994 L27,60 L27.00055,59.99988 C27.0599575,60.0000101 27.1192574,59.9948227 27.17774,59.98438 L27.17974,59.98338 L27.18267,59.98338 L27.18658,59.98238 C27.2325232,59.9735357 27.2778605,59.9617922 27.32232,59.94722 L27.32232,59.94622 L27.32432,59.94622 L27.32532,59.94522 L27.32732,59.94522 L27.32932,59.94422 L27.33032,59.94422 L27.33132,59.94322 L27.33332,59.94322 L27.33432,59.94222 L27.33632,59.94222 L27.33925,59.94022 L27.34125,59.94022 L27.34325,59.93922 L27.34618,59.93822 L27.34818,59.93722 L27.34918,59.93722 L27.35018,59.93622 L27.35218,59.93622 L27.35418,59.93522 L27.35518,59.93522 L27.35718,59.93422 L27.35918,59.93322 L27.36018,59.93322 C27.37918,59.92583 27.3946,59.91088 27.41318,59.9024 C27.42429,59.89733 27.43711,59.89965 27.44803,59.89416 L53.44803,46.89416 L53.45017,46.89251 L53.45389,46.89123 C53.5567428,46.8362931 53.6491006,46.7636472 53.72672,46.67663 C53.7485982,46.6525709 53.769235,46.6274116 53.78855,46.60125 C53.8446464,46.5280226 53.8902153,46.4473026 53.92393,46.36144 C53.93254,46.33944 53.94493,46.32018 53.95201,46.29766 C53.9830855,46.2014662 53.9992692,46.1010861 54,46 L54,14.00586 C54,13.99316 54,13.98047 53.999,13.96777 C53.9921512,13.9179387 53.9813403,13.8687328 53.96667,13.82062 Z M28,15 L48.76367,15 L28,25.38184 L28,15 Z M26,25.38184 L5.23633,15 L26,15 L26,25.38184 Z M28,28.96973 L38.68457,36.77735 L28,55.27051 L28,28.96973 Z M28.915,27.16114 L50.46777,16.38477 L39.69141,35.03613 L28.915,27.16114 Z M52,17.72949 L52,44.03027 L41.31543,36.22266 L52,17.72949 Z M28,13 L28,2.61816 L48.76367,13 L28,13 Z M26,13 L5.23633,13 L26,2.61816 L26,13 Z M2,17.73041 L12.68475,36.22253 L2,44.03058 L2,17.73041 Z M3.53223,16.38477 L25.08515,27.16077 L14.30865,35.03583 L3.53223,16.38477 Z M26,28.96942 L26,55.27051 L15.31494,36.77751 L26,28.96942 Z M40.30859,37.96387 L51.08508,45.8393 L29.53284,56.61542 L40.30859,37.96387 Z M13.6911,37.96424 L24.4679,56.61572 L2.915,45.83887 L13.6911,37.96424 Z"></path></g></g></svg>